<svg width="393" height="299" viewBox="0 0 393 299" fill="none" xmlns="http://www.w3.org/2000/svg">
<g id="team-bub-yellow1">
<path id="Vector" d="M309.468 53.6554C315.663 56.2489 347.196 69.4485 359.066 94.6992C362.359 101.706 362.751 106.687 366.94 108.18C373.957 110.678 384.665 100.909 389.462 90.7239C397.661 73.3143 390.211 51.2406 381.322 38.2816C367.473 18.0912 346.35 14.5179 336.784 12.8998C330.705 11.8711 301.849 6.98947 293.108 22.5606C289.887 28.2981 289.506 36.619 292.536 42.5869C295.815 49.0404 301.95 50.5086 309.468 53.6554Z" fill="#F1DBCD"/>
<path id="Vector_2" d="M167.936 63.1549C145.808 75.6974 144.312 105.877 107.688 123.032C94.2449 129.328 91.0542 126.852 80.2732 133.615C57.5463 147.872 39.8719 178.866 41.0275 203.236C43.4065 253.431 126.32 289.453 188.633 295.021C202.343 296.245 305.466 305.46 330.303 245.137C348.647 200.581 312.356 147.046 302.747 132.871C269.03 83.135 203.852 42.7987 167.936 63.1549Z" fill="#F9AB00"/>
<g id="Group">
<path id="Vector_3" d="M262.352 287.461C261.883 287.007 261.414 286.593 260.992 286.129C260.752 285.866 261.052 285.69 261.189 285.521C262.763 283.603 264.344 281.69 265.92 279.775C267.622 277.709 269.335 275.651 271.017 273.567C271.344 273.162 271.531 273.163 271.891 273.522C273.088 274.713 273.103 274.698 272.042 275.986C268.998 279.681 265.955 283.379 262.902 287.066C262.76 287.237 262.672 287.587 262.352 287.461Z" fill="#636061"/>
<path id="Vector_4" d="M302.062 247.665C304.344 248.65 306.598 249.778 308.885 250.748C309.291 250.921 309.4 251.123 309.186 251.54C309.045 251.814 308.901 252.101 308.827 252.401C308.665 253.055 308.401 253.148 307.808 252.87C303.412 250.81 299.002 248.786 294.588 246.774C294.121 246.562 294.001 246.374 294.217 245.843C294.853 244.281 294.828 244.281 296.304 244.93L302.062 247.665Z" fill="#636061"/>
<path id="Vector_5" d="M369.218 225.203C369.309 225.128 369.405 225.043 369.507 224.967C369.816 224.738 370.145 224.536 370.436 224.283C370.809 223.956 371.021 224.003 371.302 224.457C374.009 228.833 376.735 233.196 379.471 237.551C379.71 237.932 379.738 238.159 379.33 238.386C378.851 238.652 378.433 239.332 377.966 239.236C377.507 239.141 377.309 238.375 377.009 237.897C374.5 233.892 371.998 229.882 369.502 225.866C369.382 225.675 369.167 225.512 369.218 225.203Z" fill="#636061"/>
<path id="Vector_6" d="M259.284 263.499C259.155 263.423 259.137 263.41 259.118 263.401C257.445 262.554 257.444 262.554 258.373 260.873C260.677 256.703 262.992 252.539 265.279 248.356C265.566 247.833 265.793 247.814 266.238 248.114C267.551 248.997 267.556 248.976 266.773 250.388C264.474 254.536 262.185 258.688 259.875 262.829C259.726 263.096 259.678 263.606 259.284 263.499Z" fill="#636061"/>
<path id="Vector_7" d="M308.458 290.431C308.364 290.499 308.245 290.59 308.122 290.669C303.957 293.397 299.791 296.117 295.633 298.856C295.251 299.107 295.089 299.028 294.869 298.637C294.019 297.121 294.003 297.126 295.37 296.231C299.214 293.712 303.063 291.205 306.899 288.672C307.339 288.381 307.565 288.407 307.778 288.926C307.938 289.313 308.184 289.659 308.384 290.028C308.442 290.136 308.542 290.244 308.458 290.431Z" fill="#636061"/>
<path id="Vector_8" d="M324.256 216.822C324.277 216.696 324.343 216.646 324.431 216.637C324.513 216.63 324.597 216.643 324.68 216.643C326.456 216.659 326.455 216.659 326.362 218.578C326.131 223.32 325.891 228.06 325.686 232.802C325.659 233.417 325.506 233.592 324.929 233.541C323.438 233.412 323.438 233.442 323.518 231.827C323.755 226.997 323.988 222.166 324.224 217.336C324.233 217.159 324.247 216.979 324.256 216.822Z" fill="#636061"/>
<path id="Vector_9" d="M356.563 212.641C356.456 212.698 356.331 212.775 356.198 212.835C351.732 214.881 347.263 216.923 342.799 218.979C342.478 219.126 342.345 219.083 342.197 218.728C341.477 217.003 341.47 217.021 343.071 216.29C347.137 214.433 351.202 212.574 355.258 210.69C355.711 210.479 355.917 210.533 356.062 211.043C356.178 211.449 356.364 211.832 356.515 212.227C356.56 212.348 356.643 212.465 356.563 212.641Z" fill="#636061"/>
<path id="Vector_10" d="M324.575 260.647C325.386 260.938 325.381 260.936 325.121 261.832C323.787 266.433 322.45 271.032 321.133 275.637C321.004 276.088 320.863 276.195 320.436 276.042C318.958 275.51 318.963 275.53 319.435 273.914C320.679 269.66 321.914 265.404 323.15 261.148C323.415 260.234 323.407 260.232 324.219 260.518C324.337 260.56 324.456 260.605 324.575 260.647Z" fill="#636061"/>
<path id="Vector_11" d="M342.133 257.129C342.534 256.693 342.913 256.239 343.334 255.838C343.58 255.604 343.695 255.955 343.82 256.088C345.742 258.118 347.656 260.16 349.57 262.2C350.876 263.592 352.17 264.995 353.494 266.367C353.834 266.718 353.908 266.929 353.534 267.326C352.482 268.443 352.502 268.459 351.461 267.349C348.449 264.139 345.435 260.932 342.426 257.719C342.279 257.562 342.012 257.452 342.133 257.129Z" fill="#636061"/>
<path id="Vector_12" d="M342.683 279.494C342.562 279.583 342.465 279.664 342.359 279.73C338.418 282.259 334.476 284.782 330.541 287.322C330.217 287.531 330.099 287.445 329.924 287.132C329.09 285.651 329.086 285.664 330.459 284.785C333.917 282.57 337.372 280.347 340.828 278.127C341.689 277.574 341.686 277.571 342.183 278.474C342.311 278.706 342.445 278.935 342.566 279.171C342.614 279.265 342.64 279.373 342.683 279.494Z" fill="#636061"/>
<path id="Vector_13" d="M375.27 196.883C375.304 196.698 375.397 196.607 375.578 196.644C375.619 196.653 375.659 196.663 375.701 196.67C377.335 196.902 377.329 196.902 377.001 198.637C376.192 202.915 375.38 207.191 374.597 211.473C374.495 212.031 374.376 212.218 373.803 212.073C372.475 211.734 372.469 211.775 372.745 210.315C373.564 205.971 374.383 201.627 375.201 197.283C375.226 197.15 375.248 197.017 375.27 196.883Z" fill="#636061"/>
<path id="Vector_14" d="M304.309 276.941C304.213 276.742 304.152 276.63 304.104 276.513C302.294 272.105 300.488 267.695 298.669 263.292C298.522 262.937 298.587 262.799 298.906 262.638C300.301 261.933 300.295 261.923 300.916 263.433C302.559 267.427 304.194 271.425 305.862 275.408C306.082 275.934 306.002 276.147 305.518 276.324C305.109 276.477 304.73 276.722 304.309 276.941Z" fill="#636061"/>
<path id="Vector_15" d="M321.877 247.129C321.553 246.973 321.704 246.626 321.756 246.394C321.858 245.931 321.545 245.33 322.079 245.018C322.219 244.936 322.447 245.029 322.634 245.047C326.849 245.415 331.065 245.797 335.282 246.14C335.819 246.183 335.93 246.368 335.881 246.91C335.75 248.34 335.771 248.347 334.449 248.232C330.44 247.884 326.431 247.532 322.422 247.182C322.257 247.167 322.091 247.15 321.877 247.129Z" fill="#636061"/>
<path id="Vector_16" d="M352.086 229.302C352.174 228.991 352.427 229.094 352.603 229.132C353.084 229.238 353.638 228.935 354.043 229.408C354.104 229.478 354.051 229.668 354.044 229.804C353.84 234.478 353.628 239.151 353.442 243.825C353.422 244.309 353.284 244.421 352.855 244.397C351.429 244.317 351.428 244.335 351.494 242.799C351.68 238.485 351.865 234.171 352.05 229.857C352.058 229.677 352.073 229.497 352.086 229.302Z" fill="#636061"/>
<path id="Vector_17" d="M288.057 269.506C287.776 269.918 287.498 270.371 287.176 270.781C286.941 271.08 286.767 270.755 286.604 270.629C284.18 268.72 281.759 266.803 279.339 264.887C278.263 264.035 277.201 263.165 276.11 262.337C275.739 262.056 275.746 261.86 276.002 261.488C276.846 260.263 276.832 260.252 277.993 261.171C281.237 263.739 284.481 266.305 287.721 268.878C287.9 269.019 288.225 269.094 288.057 269.506Z" fill="#636061"/>
<path id="Vector_18" d="M373.937 250.636C374.862 251.133 374.857 251.13 374.384 252.159C372.659 255.903 370.939 259.65 369.219 263.396C368.85 264.201 368.853 264.203 368.152 263.803C367.183 263.252 367.172 263.246 367.676 262.144C369.373 258.435 371.077 254.73 372.782 251.026C373.154 250.215 373.159 250.218 373.937 250.636Z" fill="#636061"/>
<path id="Vector_19" d="M377.003 183.726C376.983 183.758 376.996 183.74 377.006 183.72C377.748 182.301 377.749 182.299 379.002 183.2C382.171 185.481 385.334 187.772 388.514 190.034C388.925 190.326 388.99 190.519 388.698 190.967C387.972 192.081 387.986 192.104 386.891 191.319C383.668 189.006 380.448 186.687 377.229 184.368C377.039 184.23 376.716 184.148 377.003 183.726Z" fill="#636061"/>
</g>
<path id="Vector_20" d="M140.906 244.235C122.97 223.11 134.366 194.842 103.128 163.174C91.662 151.55 87.2331 152.425 78.7751 141.537C60.9422 118.58 55.6337 82.5125 67.3277 60.717C91.4141 15.8247 194.316 19.0162 262.406 41.0927C277.387 45.9498 390.072 82.4852 390.324 148.513C390.511 197.283 329.235 230.445 313.01 239.225C256.079 270.035 170.021 278.524 140.906 244.235Z" fill="#FDE293"/>
<path id="Vector_21" d="M73.1667 272.127H52.0311L62.5989 249.278L73.1667 272.127Z" fill="#CC573B"/>
<g id="Group_2">
<g id="Group_3">
<path id="Vector_22" d="M39.1017 2.85288C38.8218 2.5503 38.6485 2.13245 38.6485 1.67138C38.6485 0.749242 39.3402 0 40.1945 0C46.2574 0 49.3829 3.29664 52.1418 6.20425C54.8154 9.02398 57.1251 11.459 61.9299 11.459C66.7346 11.459 69.0444 9.02398 71.718 6.20425C74.4756 3.29664 77.6023 0 83.6652 0C89.7281 0 92.8535 3.29664 95.6124 6.20425C98.286 9.02398 100.596 11.459 105.401 11.459C110.207 11.459 112.516 9.02398 115.19 6.20425C117.949 3.29664 121.074 0 127.138 0C133.201 0 136.328 3.29664 139.087 6.20425C141.762 9.02398 144.072 11.459 148.876 11.459C149.731 11.459 150.423 12.2082 150.423 13.1304C150.423 14.0525 149.731 14.8017 148.876 14.8003C142.814 14.8003 139.687 11.5037 136.929 8.59605C134.254 5.77633 131.945 3.34131 127.14 3.34131C122.334 3.34131 120.024 5.77633 117.35 8.59605C114.592 11.5037 111.466 14.8003 105.402 14.8003C99.339 14.8003 96.2135 11.5037 93.4546 8.59605C90.781 5.77633 88.4713 3.34131 83.6665 3.34131C78.8618 3.34131 76.552 5.77633 73.8784 8.59605C71.1209 11.5037 67.9941 14.8003 61.9312 14.8003C55.8683 14.8003 52.7429 11.5037 49.984 8.59605C47.3104 5.77633 45.0006 3.34131 40.1959 3.34131C39.7681 3.34131 39.3816 3.15401 39.1017 2.85288Z" fill="#CC573B"/>
</g>
<g id="Group_4">
<path id="Vector_23" d="M39.1017 15.8133C38.8218 15.5107 38.6485 15.0929 38.6485 14.6318C38.6485 13.7096 39.3402 12.9604 40.1945 12.9604C46.2574 12.9604 49.3829 16.2571 52.1418 19.1647C54.8154 21.9844 57.1251 24.4195 61.9299 24.4195C66.7346 24.4195 69.0444 21.9844 71.718 19.1647C74.4755 16.2571 77.6023 12.9604 83.6652 12.9604C89.7281 12.9604 92.8535 16.2571 95.6124 19.1647C98.286 21.9844 100.596 24.4195 105.401 24.4195C110.207 24.4195 112.516 21.9844 115.19 19.1647C117.949 16.2571 121.074 12.9604 127.137 12.9604C133.2 12.9604 136.327 16.2556 139.086 19.1647C141.761 21.9844 144.07 24.4195 148.875 24.4195C149.729 24.4195 150.421 25.1672 150.421 26.0908C150.421 27.0129 149.729 27.7622 148.875 27.7622C142.812 27.7622 139.685 24.467 136.927 21.5579C134.253 18.7382 131.943 16.3032 127.137 16.3032C122.331 16.3032 120.021 18.7382 117.346 21.5579C114.588 24.4655 111.462 27.7622 105.398 27.7622C99.3349 27.7622 96.2095 24.4655 93.4506 21.5579C90.777 18.7382 88.4673 16.3032 83.6625 16.3032C78.8578 16.3032 76.5481 18.7382 73.8731 21.5579C71.1156 24.4655 67.9888 27.7622 61.9259 27.7622C55.863 27.7622 52.7375 24.4655 49.9786 21.5579C47.305 18.7382 44.9953 16.3032 40.1905 16.3032C39.768 16.3032 39.3816 16.1159 39.1017 15.8133Z" fill="#CC573B"/>
</g>
<g id="Group_5">
<path id="Vector_24" d="M39.1017 28.7736C38.8218 28.471 38.6485 28.0532 38.6485 27.5921C38.6485 26.67 39.3402 25.9208 40.1945 25.9208C46.2574 25.9208 49.3829 29.2174 52.1418 32.125C54.8154 34.9447 57.1251 37.3798 61.9299 37.3798C66.7346 37.3798 69.0444 34.9447 71.7193 32.125C74.4769 29.2174 77.6036 25.9208 83.6665 25.9208C89.7294 25.9208 92.8549 29.2159 95.6138 32.125C98.2874 34.9447 100.597 37.3798 105.402 37.3798C110.208 37.3798 112.518 34.9447 115.191 32.125C117.95 29.2174 121.076 25.9208 127.138 25.9208C133.201 25.9208 136.328 29.2159 139.087 32.125C141.762 34.9447 144.072 37.3798 148.876 37.3798C149.731 37.3798 150.423 38.1275 150.423 39.0511C150.423 39.9732 149.731 40.7225 148.876 40.7225C142.814 40.7225 139.687 37.4259 136.928 34.5182C134.254 31.6985 131.945 29.2635 127.138 29.2635C122.332 29.2635 120.023 31.6985 117.348 34.5182C114.589 37.4259 111.463 40.7225 105.399 40.7225C99.3363 40.7225 96.2109 37.4259 93.452 34.5182C90.7784 31.6985 88.4686 29.2635 83.6639 29.2635C78.8592 29.2635 76.5494 31.6985 73.8744 34.5182C71.1169 37.4259 67.9901 40.7225 61.9272 40.7225C55.8643 40.7225 52.7389 37.4259 49.98 34.5182C47.3064 31.6985 44.9967 29.2635 40.1919 29.2635C39.7681 29.2635 39.3816 29.0762 39.1017 28.7736Z" fill="#CC573B"/>
</g>
</g>
<g id="Group_6">
<path id="Vector_25" d="M62.5989 205.958C65.8576 205.958 68.4979 203.102 68.4979 199.579C68.4979 196.057 65.8563 193.201 62.5989 193.201C59.3402 193.201 56.6987 196.057 56.6987 199.579C56.7 203.102 59.3402 205.958 62.5989 205.958Z" fill="white"/>
<path id="Vector_26" d="M62.5989 218.335C59.3402 218.335 56.6987 221.19 56.6987 224.713C56.6987 228.236 59.3402 231.092 62.5989 231.092C65.8576 231.092 68.4979 228.236 68.4979 224.713C68.4992 221.189 65.8576 218.335 62.5989 218.335Z" fill="white"/>
</g>
<g id="Group_7">
<g id="Group_8">
<path id="Vector_27" d="M324.22 118.666C323.824 118.666 323.428 118.503 323.127 118.176C322.523 117.524 322.523 116.466 323.127 115.813L335.078 102.895C335.682 102.242 336.66 102.242 337.264 102.895C337.868 103.547 337.868 104.605 337.264 105.258L325.313 118.176C325.01 118.502 324.614 118.666 324.22 118.666Z" fill="#CC573B"/>
</g>
<g id="Group_9">
<path id="Vector_28" d="M336.17 118.666C335.774 118.666 335.378 118.503 335.077 118.176L323.126 105.258C322.522 104.605 322.522 103.547 323.126 102.895C323.729 102.242 324.708 102.242 325.311 102.895L337.263 115.813C337.867 116.466 337.867 117.524 337.263 118.176C336.962 118.502 336.566 118.666 336.17 118.666Z" fill="#CC573B"/>
</g>
</g>
<path id="Vector_29" d="M28.7138 104.555C21.2434 112.097 21.3886 126.022 21.4206 127.5C21.4966 131.034 21.9684 131.222 21.7699 134.095C21.2967 140.923 18.2286 145.676 16.6972 147.984C5.53104 164.823 5.60832 163.705 2.91873 171.529C-1.3569 183.968 -0.236019 198.35 1.86048 204.135C3.92099 209.824 6.32668 216.21 11.8951 219.094C16.5853 221.525 20.9209 220.124 21.7179 219.85C27.4862 217.864 30.2185 212.02 31.2034 209.831C34.8007 201.843 31.9338 197.27 33.5279 186.981C34.4355 181.128 35.519 181.601 43.072 164.568C52.4069 143.519 52.7974 138.184 52.8214 135.001C52.8854 126.573 50.4784 120.058 48.9324 115.871C47.0051 110.652 44.8953 105.141 40.2892 102.526C39.4402 102.045 37.2984 100.866 34.5968 101.2C34.065 101.268 31.6113 101.628 28.7138 104.555Z" fill="#F1DBCD"/>
</g>
</svg>
