<svg width="393" height="300" viewBox="0 0 393 300" fill="none" xmlns="http://www.w3.org/2000/svg">
<g id="team-bub-yellow2">
<g id="y">
<path id="Vector" d="M332.322 64.1362C339.246 72.6409 332.918 77.0503 340.403 86.0309C347.949 95.0853 356.052 92.6064 363.301 103.06C366.615 107.84 366.755 111.003 371.382 114.007C375.085 116.411 381.452 118.579 386.198 116.44C393.665 113.074 393.065 100.875 392.932 98.1948C392.67 92.86 390.797 81.386 367.341 59.2714C344.108 37.3683 335.534 31.4017 326.933 28.8624C321.37 27.2207 311.971 24.5642 306.73 28.8624C301.978 32.7584 302 41.2557 305.383 47.1075C311.225 57.2117 323.676 53.5163 332.322 64.1362Z" fill="#F1DBCD"/>
<path id="Vector_2" d="M18.2381 244.203C16.0415 249.076 13.136 254.942 14.6583 260.219C15.7392 263.965 18.1712 269.608 20.7088 272.616C24.3314 276.91 30.5384 279.206 35.5 281.841C40.8214 284.668 52.398 289.384 57.1482 283.652C61.8316 278 60.3828 272.107 57.6418 266.117C55.547 261.541 52.6548 256.697 49.3119 252.825C42.9631 245.472 33.9107 235.292 22.4345 239.845L18.2381 244.203Z" fill="#F1DBCD"/>
<g id="Group">
<path id="Vector_3" d="M53.8039 0.206201L53.7544 0.465927L53.7049 0.725654L51.9846 9.66765L37.0678 7.32764L37.0076 7.63932L51.9244 9.97932L48.3848 28.3828L33.468 26.0428L33.4078 26.3544L48.3246 28.6944L44.785 47.0991L29.8682 44.7591L29.808 45.0708L44.7248 47.4108L41.1852 65.8142L26.2684 63.4742L26.2082 63.7859L41.125 66.1259L39.4047 75.0679L39.3553 75.3276L39.3058 75.5873L37.5854 84.5293L22.6686 82.1893L22.6084 82.501L37.5252 84.841L33.9857 103.246L19.0688 100.906L19.0086 101.217L33.9255 103.557L30.3859 121.962L15.469 119.622L15.4088 119.934L30.3257 122.274L26.7861 140.677L11.8692 138.337L11.809 138.649L26.7259 140.989L25.0056 149.931L24.9561 150.19L24.9066 150.45L23.1863 159.392L8.2694 157.052L8.2092 157.364L23.1261 159.704L22.2525 164.249L22.6325 164.123L23.4712 159.758L31.8413 161.071L32.4995 160.854L23.5301 159.448L25.249 150.506L25.2985 150.246L25.348 149.986L27.0683 141.044L47.4471 144.241L45.7268 153.183L45.6773 153.443L45.6278 153.702L45.0526 156.695L45.4325 156.569L45.9729 153.757L46.0224 153.497L46.0719 153.237L47.7922 144.295L57.694 145.849L57.9816 145.893L58.2679 145.938L68.1697 147.492L67.8526 149.141L68.2325 149.015L68.5148 147.546L71.332 147.988L71.9902 147.771L68.575 147.236L72.1146 128.832L92.4947 132.029L90.6567 141.588L91.0366 141.462L92.8398 132.083L110.829 134.904L111.488 134.686L92.9 131.771L96.4396 113.368L116.818 116.564L113.459 134.034L113.839 133.908L117.165 116.619L137.545 119.815L136.263 126.479L136.643 126.353L137.89 119.87L147.791 121.423L148.078 121.468L148.366 121.513L150.323 121.819L150.981 121.602L148.426 121.201L148.138 121.156L147.851 121.112L137.95 119.559L141.49 101.154L151.39 102.707L151.678 102.752L151.966 102.796L161.867 104.35L159.065 118.924L159.445 118.798L162.212 104.404L182.591 107.601L181.866 111.369L182.246 111.243L182.936 107.655L189.818 108.735L190.476 108.516L182.995 107.343L184.665 98.6599L184.354 98.4255L182.65 107.289L162.271 104.092L163.992 95.1505L164.041 94.8908L164.091 94.631L165.811 85.689L167.891 86.0152L167.353 85.6093L165.871 85.3774L166.02 84.6042L165.709 84.3699L165.526 85.323L155.624 83.7694L155.337 83.7248L155.049 83.6801L145.149 82.1277L147.376 70.5485L147.065 70.3142L144.805 82.0721L124.425 78.8756L127.964 60.4722L135.599 61.6694L135.061 61.2635L128.024 60.1593L128.729 56.4905L128.419 56.2561L127.679 60.105L107.301 56.9085L110.084 42.4336L109.774 42.1992L106.955 56.8541L86.5766 53.6576L90.1162 35.2529L103.302 37.3211L102.764 36.9152L90.1764 34.9413L91.4392 28.3779L91.1289 28.1436L89.8326 34.8869L79.9308 33.3334L79.6432 33.2886L79.3556 33.2439L69.4539 31.6904L72.7941 14.321L72.4838 14.0867L69.1087 31.636L48.73 28.4395L52.2696 10.0361L71.0096 12.9753L70.4719 12.5694L52.3298 9.72443L54.0487 0.782428L54.0982 0.522702L54.1477 0.265372L54.141 0.261759L53.836 0.0322266L53.8039 0.206201ZM45.1302 47.1546L48.6698 28.75L69.0485 31.9465L65.5089 50.3511L45.1302 47.1546ZM41.5317 65.871L45.0713 47.4676L65.4514 50.6641L61.9118 69.0675L41.5317 65.871ZM37.9319 84.5861L39.6509 75.6441L39.7004 75.3844L39.7499 75.1246L41.4702 66.1827L61.8489 69.3792L60.1286 78.3211L60.0791 78.5809L60.0296 78.8406L58.3107 87.7826L37.9319 84.5861ZM58.6572 87.837L60.3761 78.895L60.4269 78.6352L60.4764 78.3755L62.1968 69.4335L72.0985 70.9871L72.3861 71.0318L72.6738 71.0764L82.5755 72.63L80.8552 81.572L80.8057 81.8317L80.7562 82.0915L79.0359 91.0335L69.1341 89.4799L68.8479 89.4352L68.5603 89.3905L58.6572 87.837ZM120.83 97.5884L122.55 88.6463L122.6 88.3866L122.649 88.1269L124.37 79.1849L144.75 82.3814L143.03 91.3234L142.98 91.5831L142.931 91.8428L141.21 100.785L120.83 97.5884ZM122.304 88.0725L122.255 88.3322L122.205 88.592L120.486 97.534L100.106 94.3375L101.827 85.3955L101.876 85.1357L101.926 84.876L103.646 75.934L124.025 79.1305L122.304 88.0725ZM101.58 84.8216L101.531 85.0814L101.481 85.3412L99.7612 94.2831L79.3824 91.0866L81.1013 82.1446L81.1508 81.8849L81.2003 81.6251L82.9206 72.6832L103.299 75.8797L101.58 84.8216ZM34.3321 103.302L37.8717 84.8978L58.2505 88.0943L54.7109 106.499L34.3321 103.302ZM55.0574 106.553L58.597 88.1486L68.4987 89.7022L68.7863 89.7469L69.0739 89.7916L78.9757 91.3451L75.4361 109.75L65.5344 108.196L65.2468 108.152L64.9591 108.107L55.0574 106.553ZM96.5065 113.054L100.046 94.6491L120.426 97.8456L116.887 116.25L96.5065 113.054ZM96.1614 113.001L75.7826 109.804L79.3222 91.3995L99.7023 94.596L96.1614 113.001ZM30.7337 122.019L34.2733 103.615L54.6534 106.812L51.1138 125.215L30.7337 122.019ZM51.4576 125.27L54.9972 106.866L64.8989 108.42L65.1866 108.464L65.4742 108.509L75.3759 110.063L71.8363 128.466L61.9346 126.913L61.6483 126.868L61.3607 126.822L51.4576 125.27ZM27.1339 140.734L30.6735 122.33L51.0536 125.527L47.514 143.93L27.1339 140.734ZM61.8744 127.224L71.7761 128.778L68.2365 147.181L58.3348 145.628L58.0485 145.583L57.7609 145.538L47.8591 143.985L51.3987 125.581L61.3005 127.135L61.5881 127.18L61.8744 127.224ZM92.5616 131.716L72.1828 128.519L75.7224 110.116L96.1012 113.312L92.5616 131.716ZM137.612 119.501L117.232 116.305L120.771 97.9L141.151 101.097L137.612 119.501ZM155.284 84.0328L155.572 84.0775L165.474 85.6311L163.753 94.573L163.704 94.8328L163.655 95.0925L161.934 104.035L152.032 102.481L151.745 102.436L151.457 102.392L141.557 100.838L143.276 91.896L143.325 91.6363L143.375 91.3765L145.095 82.4346L154.995 83.9869L155.284 84.0328ZM127.624 60.4142L124.085 78.8176L103.706 75.6212L107.246 57.2177L127.624 60.4142ZM106.899 57.1645L103.36 75.568L82.9808 72.3715L86.5205 53.968L106.899 57.1645ZM76.2722 52.3601L86.174 53.9137L82.6344 72.3172L72.7326 70.7636L72.445 70.7189L72.1574 70.6741L62.2556 69.1207L65.7952 50.7172L75.697 52.2708L75.9846 52.3155L76.2722 52.3601ZM79.5857 33.5991L79.8733 33.6438L89.7751 35.1974L86.2355 53.602L76.3337 52.0485L76.0475 52.0038L75.7599 51.959L65.8581 50.4055L69.3977 32.0009L79.2994 33.5544L79.5857 33.5991Z" fill="#BD9D7B"/>
</g>
<path id="Vector_4" d="M126.206 60.7924C126.206 60.7924 117.023 81.1747 47.4297 110.451C-22.1636 139.726 0.633714 199.469 17.596 212.422C34.5582 225.374 55.3998 233.941 72.3848 264.168C89.3698 294.394 137.783 291.566 161.261 280.835C184.74 270.104 249.648 245.159 254.654 197.222C259.66 149.287 294.553 159.617 301.019 125.928C307.486 92.2392 280.418 34.2951 249.892 17.1879C219.365 0.0806818 159.379 14.2426 126.206 60.7924Z" fill="#F9AB00"/>
<path id="Vector_5" d="M92.8358 230.27C95.5728 233.615 98.2308 236.952 100.746 240.298C133.488 283.844 206.519 319.449 272.102 285.556C310.34 265.794 351.123 241.089 364.074 206.219C372.174 184.41 367.671 162.28 359.865 142.441C352.743 124.338 342.736 107.035 327.201 93.8096C286.6 59.2425 218.037 58.7654 155.535 60.1268C131.98 60.6403 106.949 61.5137 85.3994 72.5323C51.2342 90.0019 37.9814 128.069 45.5275 157.554C52.5973 185.175 74.5131 207.882 92.8358 230.27Z" fill="#FDE293"/>
<g id="Group_2">
<g id="Group_3">
<path id="Vector_6" d="M277.469 286.904C277.469 288.03 276.459 288.942 275.212 288.942C273.965 288.942 272.955 288.03 272.955 286.904C272.955 285.778 273.965 284.866 275.212 284.866C276.459 284.866 277.469 285.778 277.469 286.904ZM287.887 286.904C287.887 288.03 286.877 288.942 285.63 288.942C284.383 288.942 283.373 288.03 283.373 286.904C283.373 285.778 284.383 284.866 285.63 284.866C286.876 284.866 287.887 285.778 287.887 286.904ZM298.304 286.904C298.304 288.03 297.294 288.942 296.047 288.942C294.8 288.942 293.79 288.03 293.79 286.904C293.79 285.778 294.8 284.866 296.047 284.866C297.292 284.866 298.304 285.778 298.304 286.904ZM308.72 286.904C308.72 288.03 307.71 288.942 306.464 288.942C305.217 288.942 304.207 288.03 304.207 286.904C304.207 285.778 305.217 284.866 306.464 284.866C307.709 284.866 308.72 285.778 308.72 286.904ZM319.137 286.904C319.137 288.03 318.127 288.942 316.881 288.942C315.634 288.942 314.624 288.03 314.624 286.904C314.624 285.778 315.634 284.866 316.881 284.866C318.127 284.866 319.137 285.778 319.137 286.904ZM329.554 286.904C329.554 288.03 328.544 288.942 327.297 288.942C326.051 288.942 325.041 288.03 325.041 286.904C325.041 285.778 326.051 284.866 327.297 284.866C328.544 284.866 329.554 285.778 329.554 286.904ZM339.971 286.904C339.971 288.03 338.961 288.942 337.714 288.942C336.467 288.942 335.457 288.03 335.457 286.904C335.457 285.778 336.467 284.866 337.714 284.866C338.961 284.866 339.971 285.778 339.971 286.904Z" fill="#BD9D7B"/>
</g>
<g id="Group_4">
<path id="Vector_7" d="M277.41 277.692C277.41 278.818 276.4 279.73 275.153 279.73C273.906 279.73 272.896 278.818 272.896 277.692C272.896 276.566 273.906 275.654 275.153 275.654C276.4 275.653 277.41 276.566 277.41 277.692ZM287.827 277.692C287.827 278.818 286.817 279.73 285.57 279.73C284.323 279.73 283.313 278.818 283.313 277.692C283.313 276.566 284.323 275.654 285.57 275.654C286.817 275.653 287.827 276.566 287.827 277.692ZM298.245 277.692C298.245 278.818 297.235 279.73 295.988 279.73C294.741 279.73 293.731 278.818 293.731 277.692C293.731 276.566 294.741 275.654 295.988 275.654C297.233 275.653 298.245 276.566 298.245 277.692ZM308.662 277.692C308.662 278.818 307.652 279.73 306.405 279.73C305.158 279.73 304.148 278.818 304.148 277.692C304.148 276.566 305.158 275.654 306.405 275.654C307.65 275.653 308.662 276.566 308.662 277.692ZM319.078 277.692C319.078 278.818 318.068 279.73 316.822 279.73C315.575 279.73 314.565 278.818 314.565 277.692C314.565 276.566 315.575 275.654 316.822 275.654C318.068 275.653 319.078 276.566 319.078 277.692ZM329.495 277.692C329.495 278.818 328.485 279.73 327.238 279.73C325.992 279.73 324.982 278.818 324.982 277.692C324.982 276.566 325.992 275.654 327.238 275.654C328.485 275.653 329.495 276.566 329.495 277.692ZM339.912 277.692C339.912 278.818 338.902 279.73 337.655 279.73C336.409 279.73 335.399 278.818 335.399 277.692C335.399 276.566 336.409 275.654 337.655 275.654C338.902 275.653 339.912 276.566 339.912 277.692Z" fill="#BD9D7B"/>
</g>
<g id="Group_5">
<path id="Vector_8" d="M277.351 268.479C277.351 269.605 276.341 270.517 275.094 270.517C273.848 270.517 272.838 269.605 272.838 268.479C272.838 267.353 273.848 266.441 275.094 266.441C276.341 266.44 277.351 267.353 277.351 268.479ZM287.768 268.479C287.768 269.605 286.758 270.517 285.511 270.517C284.264 270.517 283.254 269.605 283.254 268.479C283.254 267.353 284.264 266.441 285.511 266.441C286.758 266.44 287.768 267.353 287.768 268.479ZM298.185 268.479C298.185 269.605 297.175 270.517 295.928 270.517C294.681 270.517 293.671 269.605 293.671 268.479C293.671 267.353 294.681 266.441 295.928 266.441C297.175 266.44 298.185 267.353 298.185 268.479ZM308.603 268.479C308.603 269.605 307.593 270.517 306.346 270.517C305.099 270.517 304.089 269.605 304.089 268.479C304.089 267.353 305.099 266.441 306.346 266.441C307.591 266.44 308.603 267.353 308.603 268.479ZM319.02 268.479C319.02 269.605 318.01 270.517 316.763 270.517C315.516 270.517 314.506 269.605 314.506 268.479C314.506 267.353 315.516 266.441 316.763 266.441C318.008 266.44 319.02 267.353 319.02 268.479ZM329.436 268.479C329.436 269.605 328.426 270.517 327.18 270.517C325.933 270.517 324.923 269.605 324.923 268.479C324.923 267.353 325.933 266.441 327.18 266.441C328.426 266.44 329.436 267.353 329.436 268.479ZM339.853 268.479C339.853 269.605 338.843 270.517 337.596 270.517C336.35 270.517 335.34 269.605 335.34 268.479C335.34 267.353 336.35 266.441 337.596 266.441C338.843 266.44 339.853 267.353 339.853 268.479Z" fill="#BD9D7B"/>
</g>
<g id="Group_6">
<path id="Vector_9" d="M277.292 259.265C277.292 260.391 276.282 261.303 275.035 261.303C273.789 261.303 272.779 260.391 272.779 259.265C272.779 258.139 273.789 257.227 275.035 257.227C276.282 257.227 277.292 258.139 277.292 259.265ZM287.709 259.265C287.709 260.391 286.699 261.303 285.452 261.303C284.205 261.303 283.195 260.391 283.195 259.265C283.195 258.139 284.205 257.227 285.452 257.227C286.699 257.227 287.709 258.141 287.709 259.265ZM298.126 259.265C298.126 260.391 297.116 261.303 295.869 261.303C294.622 261.303 293.612 260.391 293.612 259.265C293.612 258.139 294.622 257.227 295.869 257.227C297.116 257.227 298.126 258.141 298.126 259.265ZM308.544 259.265C308.544 260.391 307.534 261.303 306.287 261.303C305.04 261.303 304.03 260.391 304.03 259.265C304.03 258.139 305.04 257.227 306.287 257.227C307.533 257.227 308.544 258.141 308.544 259.265ZM318.961 259.265C318.961 260.391 317.951 261.303 316.704 261.303C315.457 261.303 314.447 260.391 314.447 259.265C314.447 258.139 315.457 257.227 316.704 257.227C317.949 257.227 318.961 258.141 318.961 259.265ZM329.377 259.265C329.377 260.391 328.368 261.303 327.121 261.303C325.874 261.303 324.864 260.391 324.864 259.265C324.864 258.139 325.874 257.227 327.121 257.227C328.368 257.227 329.377 258.141 329.377 259.265ZM339.794 259.265C339.794 260.391 338.784 261.303 337.538 261.303C336.291 261.303 335.281 260.391 335.281 259.265C335.281 258.139 336.291 257.227 337.538 257.227C338.784 257.227 339.794 258.141 339.794 259.265Z" fill="#BD9D7B"/>
</g>
</g>
<g id="Group_7">
<path id="Vector_10" d="M38.6543 172.65C42.2527 172.65 44.068 174.615 45.5261 176.192C46.9133 177.694 47.7173 178.478 49.4242 178.478C51.1312 178.478 51.9338 177.694 53.3223 176.192C54.7805 174.615 56.5944 172.65 60.1929 172.65C63.7913 172.65 65.6053 174.615 67.0634 176.192C68.4506 177.694 69.2545 178.478 70.9615 178.478C72.667 178.478 73.471 177.694 74.8582 176.192C76.3163 174.615 78.1303 172.65 81.7287 172.65C85.3272 172.65 87.1411 174.615 88.5993 176.192C89.9865 177.694 90.7904 178.478 92.496 178.478C93.5649 178.478 94.4317 179.261 94.4317 180.226C94.4317 181.191 93.5649 181.974 92.496 181.974C88.8976 181.974 87.0836 180.01 85.6255 178.432C84.2383 176.931 83.4343 176.147 81.7287 176.147C80.0232 176.147 79.2192 176.931 77.8306 178.432C76.3725 180.01 74.5586 181.974 70.9601 181.974C67.3617 181.974 65.5477 180.01 64.0896 178.432C62.7024 176.931 61.8984 176.147 60.1915 176.147C58.4846 176.147 57.682 176.931 56.2948 178.432C54.8366 180.01 53.0227 181.974 49.4242 181.974C45.8258 181.974 44.0105 180.01 42.5524 178.432C41.1652 176.931 40.3612 176.147 38.6543 176.147C36.9474 176.147 36.1434 176.931 34.7562 178.432C33.2981 180.01 31.4828 181.974 27.8843 181.974C26.8155 181.974 25.9487 181.191 25.9487 180.226C25.9487 179.261 26.8155 178.478 27.8843 178.478C29.5913 178.478 30.3952 177.694 31.7824 176.192C33.2419 174.615 35.0558 172.65 38.6543 172.65Z" fill="#A3AABB"/>
</g>
<g id="Group_8">
<g id="Group_9">
<g id="Group_10">
<path id="Vector_11" d="M292.305 29.8748C292.305 30.1285 292.198 30.3821 291.983 30.5766C291.553 30.9644 290.858 30.9644 290.428 30.5766L281.934 22.9056C281.505 22.5178 281.505 21.8896 281.934 21.503C282.363 21.1152 283.059 21.1152 283.488 21.503L291.983 29.1741C292.198 29.3674 292.305 29.6211 292.305 29.8748Z" fill="#BD9D7B"/>
</g>
<g id="Group_11">
<path id="Vector_12" d="M292.305 22.2049C292.305 22.4586 292.198 22.7122 291.983 22.9067L283.488 30.5779C283.059 30.9656 282.363 30.9656 281.934 30.5779C281.505 30.1901 281.505 29.5619 281.934 29.1753L290.428 21.5042C290.858 21.1164 291.553 21.1164 291.983 21.5042C292.198 21.6963 292.305 21.9512 292.305 22.2049Z" fill="#BD9D7B"/>
</g>
</g>
<g id="Group_12">
<g id="Group_13">
<path id="Vector_13" d="M277.124 47.4484C277.124 47.8012 276.975 48.1539 276.677 48.4221C276.082 48.9597 275.116 48.9597 274.519 48.4221L262.726 37.7719C262.13 37.2344 262.13 36.3621 262.726 35.8234C263.321 35.2858 264.287 35.2858 264.883 35.8234L276.677 46.4735C276.975 46.7429 277.124 47.0957 277.124 47.4484Z" fill="#BD9D7B"/>
</g>
<g id="Group_14">
<path id="Vector_14" d="M277.124 36.797C277.124 37.1498 276.975 37.5013 276.677 37.7707L264.883 48.4209C264.288 48.9585 263.322 48.9585 262.726 48.4209C262.13 47.8833 262.13 47.0111 262.726 46.4735L274.519 35.8234C275.114 35.2858 276.08 35.2858 276.677 35.8234C276.975 36.0927 277.124 36.4455 277.124 36.797Z" fill="#BD9D7B"/>
</g>
</g>
</g>
</g>
</g>
</svg>
