<svg width="393" height="299" viewBox="0 0 393 299" fill="none" xmlns="http://www.w3.org/2000/svg">
<g id="team-bub-blue">
<g id="Group">
<path id="Vector" d="M78.0958 213.929C84.6861 194.57 98.5856 178.561 112.031 163.32C128.025 145.191 144.02 127.061 160.013 108.93C177.207 89.4404 195.03 69.4406 216.84 57.8281C250.603 39.8529 289.071 45.4348 317.634 64.2445C346.196 83.0542 366.254 113.465 382.797 145.344C389.402 158.072 395.706 172.741 391.796 188.315C387.995 203.453 375.347 215.274 362.349 222.555C332.62 239.206 299.593 238.078 268.147 247.223C222.186 260.59 175.946 296.475 132.153 287.044C100.584 280.246 62.7545 258.998 78.0958 213.929Z" fill="#4285F4"/>
</g>
<g id="Group_2">
<path id="Vector_2" d="M131.642 286.169C128.42 286.169 125.268 285.962 122.174 285.55C109.836 283.909 79.5845 277.787 65.1671 256.427C57.259 244.712 55.3997 230.306 59.6375 213.609C65.0131 192.432 78.6987 174.174 90.7728 158.067L136.13 97.5597C151.514 77.0355 168.952 53.7738 191.047 39.6424C206.995 29.4437 225.561 24.1037 244.767 24.2292C262.648 24.3378 280.604 29.0696 296.693 37.9134C311.315 45.9502 324.918 57.0827 338.28 71.9479C349.091 83.975 359.878 98.6766 371.255 116.893C379.596 130.248 386.938 144.842 384.214 161.056C381.86 175.068 371.682 189.018 356.29 199.334C337.495 211.927 316.359 217.251 295.919 222.4C284.16 225.363 272.003 228.426 260.372 232.841C244.711 238.787 228.993 247.507 213.791 255.94C198.834 264.239 183.367 272.82 168.145 278.619C154.878 283.672 142.843 286.169 131.642 286.169ZM59.9989 213.703L60.3617 213.796C56.1786 230.278 58.004 244.48 65.7855 256.01C80.0334 277.117 110.035 283.182 122.272 284.81C135.997 286.635 150.914 284.383 167.877 277.92C183.05 272.141 198.493 263.573 213.427 255.288C228.652 246.842 244.394 238.109 260.106 232.144C271.777 227.713 283.956 224.645 295.735 221.678C316.114 216.545 337.185 211.236 355.872 198.715C371.095 188.514 381.156 174.744 383.475 160.936C386.158 144.968 378.883 130.524 370.62 117.294C359.266 99.1148 348.505 84.4471 337.723 72.4527C324.418 57.6516 310.879 46.5688 296.331 38.5726C280.35 29.789 262.517 25.0885 244.761 24.9813C225.696 24.8662 207.273 30.1552 191.447 40.2767C169.466 54.3349 152.073 77.539 136.726 98.0123L91.3691 158.519C79.3366 174.572 65.6981 192.765 60.3604 213.797L59.9989 213.703Z" fill="#B3AFA2"/>
</g>
<g id="Group_3">
<g id="Group_4">
<g id="Group_5">
<path id="Vector_3" d="M7.71755 223.759C8.32556 223.443 9.08493 223.466 9.68642 223.886C11.8836 225.417 14.7619 226.011 17.3844 225.472C18.4165 225.261 19.4251 225.928 19.6365 226.962C19.8478 227.997 19.1824 229.009 18.1503 229.219C14.4709 229.975 10.5919 229.176 7.50878 227.027C6.64373 226.424 6.42976 225.233 7.03125 224.366C7.21391 224.101 7.45138 223.898 7.71755 223.759Z" fill="#C1BCB0"/>
</g>
</g>
<g id="Group_6">
<g id="Group_7">
<path id="Vector_4" d="M123.765 221.727C124.071 221.567 124.425 221.489 124.795 221.519C125.846 221.604 126.627 222.526 126.544 223.579C125.953 230.918 124.705 238.252 122.834 245.374C122.566 246.396 121.522 247.005 120.504 246.737C119.485 246.468 118.877 245.423 119.145 244.401C120.958 237.497 122.168 230.387 122.74 223.271C122.794 222.589 123.2 222.02 123.765 221.727Z" fill="#C1BCB0"/>
</g>
</g>
<g id="Group_8">
<g id="Group_9">
<path id="Vector_5" d="M110.745 265.672C111.402 265.331 112.227 265.391 112.836 265.893C116.035 268.53 120.079 270.04 124.22 270.149C125.273 270.176 126.105 271.054 126.078 272.111C126.051 273.166 125.174 274.001 124.121 273.973C119.134 273.844 114.266 272.023 110.413 268.849C109.599 268.178 109.482 266.973 110.151 266.157C110.319 265.948 110.523 265.787 110.745 265.672Z" fill="#C1BCB0"/>
</g>
</g>
<g id="Group_10">
<g id="Group_11">
<path id="Vector_6" d="M106.816 245.739C107.621 245.321 108.636 245.527 109.206 246.275C112.276 250.291 115.87 253.879 119.886 256.945C120.723 257.584 120.886 258.785 120.248 259.625C119.612 260.464 118.414 260.628 117.575 259.988C113.289 256.717 109.455 252.887 106.178 248.603C105.537 247.765 105.695 246.564 106.531 245.922C106.623 245.85 106.717 245.79 106.816 245.739Z" fill="#C1BCB0"/>
</g>
</g>
<g id="Group_12">
<g id="Group_13">
<path id="Vector_7" d="M101.763 259.83C102.354 259.523 103.088 259.536 103.685 259.925C104.567 260.502 104.816 261.687 104.24 262.571C99.6294 269.656 94.1247 276.134 87.8789 281.823C87.1012 282.536 85.893 282.476 85.1845 281.694C84.4761 280.913 84.5335 279.703 85.3124 278.993C91.3182 273.522 96.6102 267.293 101.045 260.481C101.23 260.198 101.48 259.978 101.763 259.83Z" fill="#C1BCB0"/>
</g>
</g>
<g id="Group_14">
<g id="Group_15">
<path id="Vector_8" d="M106.79 291.583C106.833 291.561 106.876 291.54 106.922 291.521L121.685 285.208C122.654 284.793 123.775 285.244 124.189 286.216C124.602 287.188 124.146 288.315 123.183 288.726L108.419 295.04C107.45 295.455 106.329 295.004 105.916 294.032C105.522 293.105 105.913 292.04 106.79 291.583Z" fill="#C1BCB0"/>
</g>
</g>
<g id="Group_16">
<g id="Group_17">
<path id="Vector_9" d="M134.919 223.747C135.639 223.373 136.547 223.49 137.149 224.097L144.827 231.838C145.571 232.587 145.567 233.797 144.821 234.543C144.073 235.291 142.866 235.284 142.122 234.536L134.444 226.796C133.7 226.047 133.704 224.837 134.451 224.091C134.593 223.949 134.751 223.835 134.919 223.747Z" fill="#C1BCB0"/>
</g>
</g>
<g id="Group_18">
<g id="Group_19">
<path id="Vector_10" d="M36.5356 273.195C37.3041 272.796 38.2722 272.961 38.8607 273.649L45.6114 281.537C46.2977 282.338 46.2051 283.545 45.4053 284.233C44.6068 284.921 43.4012 284.829 42.7162 284.027L35.9654 276.139C35.2791 275.337 35.3718 274.13 36.1716 273.442C36.2851 273.344 36.4077 273.262 36.5356 273.195Z" fill="#C1BCB0"/>
</g>
</g>
<g id="Group_20">
<g id="Group_21">
<path id="Vector_11" d="M104.877 274.936C105.468 274.629 106.203 274.642 106.8 275.033C107.682 275.611 107.93 276.796 107.354 277.68L103.064 284.259C102.487 285.144 101.305 285.392 100.423 284.814C99.5408 284.236 99.2929 283.051 99.8696 282.167L104.16 275.587C104.346 275.302 104.595 275.082 104.877 274.936Z" fill="#C1BCB0"/>
</g>
</g>
<g id="Group_22">
<g id="Group_23">
<path id="Vector_12" d="M15.9649 246.388C16.4985 246.111 17.1522 246.09 17.725 246.388C22.8983 249.086 28.7149 250.466 34.5458 250.381C35.5988 250.365 36.4651 251.209 36.4808 252.264C36.4964 253.321 35.6549 254.19 34.6019 254.204C28.1408 254.298 21.6966 252.767 15.9636 249.779C15.0294 249.291 14.6653 248.136 15.152 247.2C15.3399 246.839 15.6283 246.563 15.9649 246.388Z" fill="#C1BCB0"/>
</g>
</g>
<g id="Group_24">
<g id="Group_25">
<path id="Vector_13" d="M108.1 229.246C108.499 229.039 108.971 228.971 109.441 229.089C110.463 229.345 111.084 230.384 110.828 231.408C109.735 235.786 106.937 239.702 103.15 242.148C102.26 242.721 101.083 242.463 100.513 241.576C99.9425 240.689 100.197 239.506 101.083 238.933C104.063 237.008 106.265 233.927 107.127 230.48C107.265 229.926 107.631 229.49 108.1 229.246Z" fill="#C1BCB0"/>
</g>
</g>
<g id="Group_26">
<g id="Group_27">
<path id="Vector_14" d="M62.9046 271.239C63.7983 270.774 64.9074 271.087 65.4254 271.966C67.9031 276.181 70.831 280.146 74.1281 283.755C74.8392 284.533 74.787 285.743 74.0106 286.457C73.2304 287.172 72.0261 287.117 71.315 286.339C67.8379 282.535 64.7508 278.352 62.1374 273.906C61.6025 272.996 61.9052 271.824 62.8133 271.288C62.8433 271.271 62.8733 271.254 62.9046 271.239Z" fill="#C1BCB0"/>
</g>
</g>
<g id="Group_28">
<g id="Group_29">
<path id="Vector_15" d="M52.4248 272.788C52.5931 272.701 52.7771 272.638 52.9741 272.603C54.0114 272.42 55.0004 273.115 55.1831 274.155L57.0671 284.907C57.2485 285.947 56.557 286.937 55.5184 287.121C54.4811 287.304 53.4921 286.608 53.3094 285.569L51.4254 274.817C51.2766 273.973 51.7046 273.162 52.4248 272.788Z" fill="#C1BCB0"/>
</g>
</g>
<g id="Group_30">
<g id="Group_31">
<path id="Vector_16" d="M105.719 216.926C105.964 216.799 106.239 216.723 106.533 216.712L115.294 216.419C116.347 216.384 117.229 217.211 117.264 218.266C117.301 219.322 116.472 220.207 115.422 220.241L106.659 220.535C105.606 220.571 104.724 219.744 104.689 218.689C104.664 217.927 105.086 217.255 105.719 216.926Z" fill="#C1BCB0"/>
</g>
</g>
<g id="Group_32">
<g id="Group_33">
<path id="Vector_17" d="M112.934 193C113.242 192.84 113.597 192.762 113.969 192.792C118.35 193.157 122.58 194.671 126.201 197.169C127.068 197.768 127.287 198.958 126.69 199.828C126.091 200.698 124.904 200.917 124.037 200.318C120.963 198.197 117.371 196.911 113.653 196.601C112.603 196.514 111.822 195.591 111.91 194.538C111.966 193.859 112.37 193.293 112.934 193Z" fill="#C1BCB0"/>
</g>
</g>
<g id="Group_34">
<g id="Group_35">
<path id="Vector_18" d="M135.934 267.137C136.271 266.963 136.661 266.886 137.064 266.94C138.108 267.08 138.841 268.042 138.701 269.088C137.998 274.36 135.571 279.363 131.867 283.174C131.131 283.93 129.924 283.946 129.17 283.209C128.416 282.473 128.401 281.262 129.135 280.506C132.27 277.281 134.325 273.046 134.92 268.582C135.006 267.939 135.401 267.414 135.934 267.137Z" fill="#C1BCB0"/>
</g>
</g>
<g id="Group_36">
<g id="Group_37">
<path id="Vector_19" d="M143.919 242.209C144.568 241.872 145.381 241.925 145.987 242.412C146.811 243.07 146.946 244.273 146.29 245.1C141.489 251.138 135.684 256.177 129.036 260.076C128.127 260.617 126.957 260.302 126.426 259.392C125.894 258.48 126.201 257.309 127.109 256.776C133.349 253.116 138.799 248.386 143.306 242.718C143.478 242.498 143.688 242.33 143.919 242.209Z" fill="#C1BCB0"/>
</g>
</g>
<g id="Group_38">
<g id="Group_39">
<path id="Vector_20" d="M132.025 200.123C132.175 200.045 132.337 199.986 132.51 199.949C133.541 199.732 134.554 200.393 134.772 201.426C135.697 205.826 136.041 210.333 135.796 214.82C135.738 215.875 134.838 216.682 133.787 216.625C132.735 216.567 131.929 215.666 131.987 214.611C132.214 210.458 131.896 206.287 131.039 202.216C130.857 201.355 131.284 200.509 132.025 200.123Z" fill="#C1BCB0"/>
</g>
</g>
<g id="Group_40">
<g id="Group_41">
<path id="Vector_21" d="M71.2681 261.439C71.649 261.241 72.0992 261.169 72.5506 261.269L86.1422 264.235C87.1716 264.46 87.824 265.479 87.6009 266.511C87.3765 267.543 86.3601 268.196 85.3307 267.973L71.7391 265.007C70.7096 264.782 70.0573 263.763 70.2804 262.731C70.4069 262.153 70.7827 261.692 71.2681 261.439Z" fill="#C1BCB0"/>
</g>
</g>
<g id="Group_42">
<g id="Group_43">
<path id="Vector_22" d="M14.8963 233.441C15.2668 233.249 15.7026 233.176 16.1436 233.263C17.177 233.467 17.8489 234.473 17.6454 235.51C16.8534 239.535 15.426 243.384 13.4036 246.951C12.8843 247.868 11.7192 248.191 10.8033 247.669C9.88735 247.148 9.56637 245.981 10.087 245.063C11.9058 241.853 13.1897 238.39 13.9021 234.771C14.0195 234.174 14.3992 233.699 14.8963 233.441Z" fill="#C1BCB0"/>
</g>
</g>
<g id="Group_44">
<g id="Group_45">
<path id="Vector_23" d="M26.5543 256.583C27.1205 256.288 27.8212 256.284 28.4083 256.636C35.9224 261.116 44.8729 263.491 53.6135 263.323C54.6664 263.302 55.5367 264.142 55.5563 265.199C55.5771 266.254 54.7408 267.128 53.6853 267.146C44.1071 267.329 34.692 264.831 26.4577 259.923C25.5522 259.384 25.2547 258.21 25.7936 257.302C25.9828 256.984 26.2489 256.741 26.5543 256.583Z" fill="#C1BCB0"/>
</g>
</g>
<g id="Group_46">
<g id="Group_47">
<path id="Vector_24" d="M7.71233 189.667C8.63871 189.186 9.78038 189.54 10.2736 190.465C12.9418 195.475 16.3668 200.012 20.4532 203.949C21.2139 204.681 21.2374 205.891 20.5067 206.652C19.7761 207.417 18.5692 207.438 17.8098 206.706C13.4337 202.491 9.7647 197.632 6.9073 192.265C6.41149 191.333 6.76249 190.175 7.69278 189.678C7.698 189.674 7.70581 189.67 7.71233 189.667Z" fill="#C1BCB0"/>
</g>
</g>
<g id="Group_48">
<g id="Group_49">
<path id="Vector_25" d="M88.4085 238.872C88.8652 238.633 89.4158 238.581 89.939 238.772C90.9293 239.133 91.4408 240.23 91.0807 241.222C88.8 247.516 85.5368 253.368 81.3851 258.614C80.7301 259.441 79.5297 259.58 78.7051 258.924C77.8805 258.267 77.7409 257.064 78.3959 256.237C82.2932 251.315 85.3541 245.823 87.4952 239.917C87.6649 239.447 87.9988 239.085 88.4085 238.872Z" fill="#C1BCB0"/>
</g>
</g>
<g id="Group_50">
<g id="Group_51">
<path id="Vector_26" d="M88.9892 287.654C89.8203 287.222 90.8615 287.457 91.4199 288.243C92.0305 289.104 91.8309 290.298 90.9724 290.91C86.6027 294.028 81.8926 296.696 76.9698 298.841C76.0043 299.262 74.8796 298.819 74.4595 297.849C74.0393 296.88 74.4908 295.762 75.4485 295.333C80.126 293.294 84.6039 290.758 88.7595 287.795C88.8339 287.741 88.9109 287.695 88.9892 287.654Z" fill="#C1BCB0"/>
</g>
</g>
<g id="Group_52">
<g id="Group_53">
<path id="Vector_27" d="M33.0337 239.518C33.5595 239.244 34.204 239.219 34.7742 239.508C40.2841 242.299 45.4979 245.704 50.2707 249.626C51.0849 250.296 51.2049 251.5 50.5369 252.316C49.8688 253.134 48.6672 253.253 47.8517 252.583C43.2942 248.837 38.314 245.587 33.0519 242.922C32.1112 242.446 31.7354 241.295 32.2103 240.353C32.3982 239.981 32.6905 239.695 33.0337 239.518Z" fill="#C1BCB0"/>
</g>
</g>
<g id="Group_54">
<g id="Group_55">
<path id="Vector_28" d="M96.194 221.306C97.0591 220.856 98.1394 221.133 98.677 221.973C99.2458 222.862 98.9875 224.044 98.1002 224.614L85.2954 232.845C84.416 233.407 83.2287 233.156 82.6598 232.267C82.091 231.377 82.3493 230.195 83.2365 229.625L96.0413 221.395C96.0909 221.362 96.1431 221.333 96.194 221.306Z" fill="#C1BCB0"/>
</g>
</g>
<g id="Group_56">
<g id="Group_57">
<path id="Vector_29" d="M49.2216 239.115C49.3991 239.023 49.5935 238.958 49.7997 238.924C53.5352 238.326 57.3033 238.435 60.9983 239.246C62.0278 239.472 62.6788 240.491 62.4544 241.523C62.2287 242.554 61.2123 243.207 60.1829 242.982C57.0006 242.284 53.6174 242.187 50.4012 242.701C49.3613 242.867 48.3827 242.157 48.217 241.114C48.0839 240.279 48.5119 239.484 49.2216 239.115Z" fill="#C1BCB0"/>
</g>
</g>
<g id="Group_58">
<g id="Group_59">
<path id="Vector_30" d="M25.0107 220.816C25.4282 220.599 25.9267 220.535 26.4147 220.676C27.4271 220.968 28.0129 222.028 27.722 223.042C26.0049 229.036 25.8458 235.415 27.2627 241.487C27.5028 242.515 26.8648 243.543 25.8392 243.785C24.8137 244.026 23.7869 243.388 23.5468 242.358C21.9824 235.651 22.1573 228.607 24.0531 221.987C24.2057 221.46 24.5619 221.049 25.0107 220.816Z" fill="#C1BCB0"/>
</g>
</g>
<g id="Group_60">
<g id="Group_61">
<path id="Vector_31" d="M88.2507 202.243C88.4908 202.119 88.7608 202.043 89.0492 202.032L105.103 201.362C106.156 201.317 107.044 202.138 107.087 203.193C107.132 204.248 106.312 205.139 105.261 205.182L89.2071 205.852C88.1541 205.896 87.2656 205.076 87.2225 204.021C87.1912 203.254 87.614 202.574 88.2507 202.243Z" fill="#C1BCB0"/>
</g>
</g>
<g id="Group_62">
<g id="Group_63">
<path id="Vector_32" d="M66.8176 219.609C66.8254 219.605 66.8332 219.602 66.841 219.596C67.783 219.123 68.9286 219.505 69.4009 220.449C72.3157 226.279 74.4699 232.472 75.8034 238.855C76.02 239.888 75.3558 240.901 74.3277 241.118C73.2969 241.336 72.2858 240.673 72.0692 239.639C70.8023 233.579 68.7564 227.699 65.989 222.164C65.5232 221.227 65.8925 220.089 66.8176 219.609Z" fill="#C1BCB0"/>
</g>
</g>
<g id="Group_64">
<g id="Group_65">
<path id="Vector_33" d="M59.0008 210.241C59.5736 209.943 60.2846 209.944 60.8757 210.307C61.7747 210.857 62.0578 212.034 61.5085 212.935L49.9054 231.961C49.3561 232.862 48.1818 233.146 47.2828 232.595C46.3838 232.045 46.1007 230.867 46.65 229.966L58.2531 210.941C58.441 210.632 58.702 210.397 59.0008 210.241Z" fill="#C1BCB0"/>
</g>
</g>
<g id="Group_66">
<g id="Group_67">
<path id="Vector_34" d="M1.02811 204.42C1.16119 204.351 1.30339 204.297 1.45344 204.26C2.47636 204.009 3.50973 204.637 3.76025 205.662L7.18781 219.68C7.43832 220.707 6.81205 221.741 5.78912 221.992C4.76489 222.243 3.73283 221.616 3.48232 220.59L0.054758 206.573C-0.157916 205.698 0.266131 204.816 1.02811 204.42Z" fill="#C1BCB0"/>
</g>
</g>
<g id="Group_68">
<g id="Group_69">
<path id="Vector_35" d="M75.365 195.125C75.7199 194.94 76.1361 194.866 76.5614 194.938C77.6 195.114 78.2993 196.102 78.1232 197.143C77.2138 202.517 78.8735 208.404 82.4524 212.508C83.1452 213.303 83.0656 214.51 82.2723 215.206C81.4817 215.9 80.2747 215.82 79.5806 215.025C75.2006 210.004 73.2486 203.081 74.3616 196.505C74.4647 195.889 74.8522 195.392 75.365 195.125Z" fill="#C1BCB0"/>
</g>
</g>
<g id="Group_70">
<g id="Group_71">
<path id="Vector_36" d="M52.3453 195.797C56.086 193.852 60.9461 194.094 64.3098 196.798C65.1318 197.458 65.2636 198.661 64.6047 199.485C63.9445 200.308 62.7441 200.441 61.9234 199.781C59.1326 197.539 54.3519 198.04 52.0843 200.811C51.4163 201.628 50.2146 201.748 49.4004 201.077C48.5863 200.407 48.4662 199.203 49.1356 198.387C50.0241 197.299 51.1253 196.431 52.3453 195.797Z" fill="#C1BCB0"/>
</g>
</g>
<g id="Group_72">
<g id="Group_73">
<path id="Vector_37" d="M36.1207 208.742C36.2264 208.687 36.3386 208.642 36.4573 208.606C37.4672 208.305 38.5292 208.882 38.8293 209.894C40.0988 214.18 40.5738 218.615 40.2398 223.075C40.1615 224.128 39.2442 224.918 38.1952 224.839C37.1449 224.761 36.3568 223.843 36.4364 222.79C36.7352 218.794 36.3099 214.824 35.1721 210.984C34.9073 210.091 35.3248 209.157 36.1207 208.742Z" fill="#C1BCB0"/>
</g>
</g>
<g id="Group_74">
<g id="Group_75">
<path id="Vector_38" d="M90.7911 171.628C91.219 171.406 91.7292 171.344 92.2263 171.497C97.1413 173.001 101.397 176.445 103.901 180.944C104.415 181.866 104.085 183.031 103.164 183.545C102.257 184.038 101.083 183.73 100.569 182.806C98.54 179.162 95.0928 176.373 91.112 175.154C90.1034 174.845 89.5372 173.777 89.8452 172.767C90.0004 172.254 90.3514 171.855 90.7911 171.628Z" fill="#C1BCB0"/>
</g>
</g>
<g id="Group_76">
<g id="Group_77">
<path id="Vector_39" d="M106.242 186.494C106.272 186.479 106.303 186.463 106.336 186.448C110.858 184.4 115.872 183.302 120.837 183.273C121.89 183.266 122.75 184.118 122.755 185.175C122.761 186.23 121.913 187.091 120.858 187.097C116.424 187.123 111.945 188.104 107.907 189.934C106.946 190.369 105.817 189.942 105.382 188.979C104.963 188.048 105.348 186.959 106.242 186.494Z" fill="#C1BCB0"/>
</g>
</g>
<g id="Group_78">
<g id="Group_79">
<path id="Vector_40" d="M77.7918 177.371C78.6138 176.943 79.6471 177.169 80.2095 177.943C82.6794 181.341 84.8087 185.006 86.5362 188.838C86.9707 189.801 86.5428 190.923 85.5838 191.369C84.6235 191.804 83.4936 191.375 83.0591 190.414C81.4386 186.82 79.4423 183.383 77.1264 180.197C76.5053 179.344 76.6932 178.147 77.5439 177.525C77.6248 177.466 77.707 177.414 77.7918 177.371Z" fill="#C1BCB0"/>
</g>
</g>
<g id="Group_80">
<g id="Group_81">
<path id="Vector_41" d="M14.3522 214.399C14.3835 214.383 14.4161 214.367 14.4487 214.352L29.088 207.747C30.0483 207.313 31.1783 207.743 31.6101 208.706C32.0433 209.668 31.6075 210.787 30.6537 211.234L16.0144 217.837C15.0541 218.271 13.9242 217.841 13.4923 216.878C13.0748 215.95 13.4598 214.863 14.3522 214.399Z" fill="#C1BCB0"/>
</g>
</g>
<g id="Group_82">
<g id="Group_83">
<path id="Vector_42" d="M44.9095 189.437C45.4053 189.179 46.0107 189.141 46.5613 189.386C47.5255 189.814 47.96 190.944 47.5334 191.909C45.9076 195.588 43.8774 199.096 41.5002 202.335C40.8739 203.187 39.6814 203.368 38.8333 202.742C37.9852 202.115 37.8038 200.919 38.4275 200.069C40.6417 197.053 42.5322 193.786 44.0458 190.36C44.2258 189.946 44.5376 189.631 44.9095 189.437Z" fill="#C1BCB0"/>
</g>
</g>
<g id="Group_84">
<g id="Group_85">
<path id="Vector_43" d="M52.2957 177.044C58.325 173.91 65.0275 171.948 71.7835 171.352C72.8325 171.259 73.7588 172.037 73.8515 173.089C73.9441 174.142 73.1678 175.067 72.1188 175.16C65.3602 175.757 58.6576 177.827 52.7367 181.148C51.7907 181.672 50.6543 181.333 50.1402 180.413C49.6262 179.491 49.9537 178.325 50.8735 177.81C51.3419 177.549 51.8169 177.292 52.2957 177.044Z" fill="#C1BCB0"/>
</g>
</g>
<g id="Group_86">
<g id="Group_87">
<path id="Vector_44" d="M19.4251 179.424C19.5229 179.373 19.6273 179.33 19.7356 179.296C20.7415 178.981 21.8114 179.542 22.1259 180.55L25.2716 190.635C25.5861 191.643 25.0289 192.718 24.0204 193.031C23.0144 193.346 21.9445 192.785 21.6301 191.777L18.4843 181.692C18.2038 180.793 18.6187 179.844 19.4251 179.424Z" fill="#C1BCB0"/>
</g>
</g>
<g id="Group_88">
<g id="Group_89">
<path id="Vector_45" d="M33.7695 188.558C34.4232 188.218 35.2426 188.276 35.8506 188.77C36.6687 189.436 36.7952 190.639 36.1311 191.459L28.1773 201.291C27.5158 202.114 26.3128 202.237 25.4948 201.573C24.6767 200.907 24.5501 199.704 25.2143 198.884L33.168 189.051C33.3376 188.841 33.5438 188.676 33.7695 188.558Z" fill="#C1BCB0"/>
</g>
</g>
<g id="Group_90">
<g id="Group_91">
<path id="Vector_46" d="M70.1407 244.026C70.6535 243.759 71.2811 243.728 71.8434 243.997C72.7946 244.452 73.1965 245.594 72.7424 246.547C70.5491 251.147 67.8039 255.481 64.5838 259.427C63.9158 260.245 62.7154 260.365 61.8986 259.697C61.0831 259.028 60.9631 257.824 61.6298 257.005C64.6569 253.295 67.2377 249.222 69.2992 244.898C69.4844 244.507 69.7859 244.21 70.1407 244.026Z" fill="#C1BCB0"/>
</g>
</g>
<g id="Group_92">
<g id="Group_93">
<path id="Vector_47" d="M95.693 183.144C96.0975 182.933 96.5763 182.868 97.0512 182.99C98.0702 183.256 98.6822 184.3 98.4173 185.322L96.3976 193.103C96.1314 194.126 95.0889 194.738 94.0712 194.472C93.0522 194.205 92.4402 193.162 92.7051 192.14L94.7249 184.36C94.8671 183.814 95.2298 183.384 95.693 183.144Z" fill="#C1BCB0"/>
</g>
</g>
<g id="Group_94">
<g id="Group_95">
<path id="Vector_48" d="M37.8286 172.13C38.2109 171.931 38.5984 171.742 38.9898 171.561C39.9475 171.12 41.0801 171.541 41.5198 172.501C41.9581 173.461 41.5472 174.595 40.5816 175.037C37.2454 176.568 34.281 178.906 32.0016 181.789C31.3466 182.616 30.1475 182.755 29.3216 182.1C28.4957 181.445 28.3561 180.241 29.0111 179.414C31.3936 176.4 34.4245 173.901 37.8286 172.13Z" fill="#C1BCB0"/>
</g>
</g>
<g id="Group_96">
<g id="Group_97">
<path id="Vector_49" d="M13.752 186.091C14.5544 185.674 15.5643 185.878 16.1371 186.62L18.4974 189.678C19.1419 190.513 18.9893 191.714 18.1569 192.36C17.3192 193.007 16.1254 192.854 15.4808 192.019L13.1205 188.961C12.476 188.125 12.6286 186.925 13.4611 186.278C13.5537 186.206 13.6515 186.144 13.752 186.091Z" fill="#C1BCB0"/>
</g>
</g>
<g id="Group_98">
<g id="Group_99">
<path id="Vector_50" d="M132.951 237.94C133.442 237.685 134.038 237.645 134.586 237.882C135.554 238.299 135.999 239.425 135.583 240.395L134.251 243.495C133.835 244.465 132.713 244.914 131.745 244.495C130.776 244.078 130.33 242.953 130.746 241.983L132.079 238.881C132.26 238.458 132.574 238.136 132.951 237.94Z" fill="#C1BCB0"/>
</g>
</g>
<g id="Group_100">
<g id="Group_101">
<path id="Vector_51" d="M114.241 203.247C115.097 202.802 116.167 203.068 116.71 203.892C117.617 205.269 118.971 206.331 120.525 206.883C121.518 207.234 122.039 208.328 121.686 209.323C121.334 210.32 120.243 210.84 119.252 210.487C116.921 209.66 114.887 208.065 113.526 205.997C112.946 205.116 113.188 203.929 114.068 203.349C114.124 203.311 114.181 203.277 114.241 203.247Z" fill="#C1BCB0"/>
</g>
</g>
<g id="Group_102">
<g id="Group_103">
<path id="Vector_52" d="M92.9595 251.556C93.4253 251.314 93.9877 251.265 94.5175 251.466L98.5987 253.023C99.5838 253.398 100.078 254.502 99.7038 255.489C99.3307 256.477 98.2282 256.972 97.2431 256.598L93.1592 255.042C92.1741 254.666 91.6809 253.561 92.0541 252.574C92.2289 252.117 92.5577 251.766 92.9595 251.556Z" fill="#C1BCB0"/>
</g>
</g>
<g id="Group_104">
<g id="Group_105">
<path id="Vector_53" d="M67.7478 288.414C67.9162 288.327 68.1014 288.264 68.2984 288.229C69.3357 288.047 70.3247 288.743 70.5061 289.783L71.1911 293.705C71.3725 294.746 70.6783 295.736 69.6411 295.918C68.6025 296.1 67.6148 295.404 67.4334 294.364L66.7484 290.442C66.601 289.599 67.0289 288.789 67.7478 288.414Z" fill="#C1BCB0"/>
</g>
</g>
<g id="Group_106">
<g id="Group_107">
<path id="Vector_54" d="M61.7656 182.9C61.8517 182.856 61.9417 182.818 62.0356 182.785C63.0338 182.448 64.1154 182.984 64.4533 183.985L65.4502 186.944C65.7868 187.945 65.2557 189.032 64.2537 189.368C63.2556 189.705 62.1726 189.169 61.836 188.168L60.8392 185.209C60.5339 184.304 60.9449 183.328 61.7656 182.9Z" fill="#C1BCB0"/>
</g>
</g>
<g id="Group_108">
<g id="Group_109">
<path id="Vector_55" d="M5.27374 203.504C5.92481 203.166 6.74159 203.222 7.3496 203.712L7.77625 204.056C8.59694 204.719 8.72612 205.923 8.06461 206.745C7.4031 207.568 6.20273 207.697 5.38205 207.034L4.95536 206.69C4.13467 206.029 4.00553 204.824 4.66704 204.001C4.83926 203.789 5.04671 203.623 5.27374 203.504Z" fill="#C1BCB0"/>
</g>
</g>
<g id="Group_110">
<g id="Group_111">
<path id="Vector_56" d="M143.611 255.757C143.857 255.63 144.132 255.555 144.425 255.544C145.478 255.509 146.36 256.337 146.396 257.391C146.453 259.116 145.981 260.872 145.065 262.336C144.506 263.232 143.328 263.501 142.436 262.94C141.543 262.379 141.273 261.198 141.833 260.305C142.348 259.48 142.616 258.491 142.583 257.519C142.557 256.758 142.98 256.086 143.611 255.757Z" fill="#C1BCB0"/>
</g>
</g>
<g id="Group_112">
<g id="Group_113">
<path id="Vector_57" d="M107.446 176.776C108.382 176.289 109.533 176.655 110.018 177.593L110.469 178.465C110.955 179.403 110.589 180.557 109.654 181.043C108.718 181.53 107.568 181.163 107.082 180.226L106.631 179.353C106.147 178.416 106.512 177.262 107.446 176.776Z" fill="#C1BCB0"/>
</g>
</g>
<g id="Group_114">
<g id="Group_115">
<path id="Vector_58" d="M41.8929 180.936C42.5139 180.613 43.2903 180.645 43.8944 181.086L45.2252 182.057C46.0772 182.678 46.2651 183.873 45.6466 184.729C45.0243 185.584 43.833 185.771 42.981 185.151L41.6502 184.181C40.7982 183.559 40.6103 182.364 41.2288 181.509C41.4101 181.26 41.6384 181.068 41.8929 180.936Z" fill="#C1BCB0"/>
</g>
</g>
</g>
<g id="Group_116">
<path id="Vector_59" d="M280.018 61.9178C276.491 59.149 273.044 56.3686 269.732 53.5514C226.635 16.8698 146.33 -3.11304 91.155 45.1418C58.9838 73.2778 25.607 106.932 21.9589 144.78C19.6769 168.452 29.7548 189.719 42.4605 207.969C54.0545 224.622 68.254 239.847 86.7893 249.778C135.233 275.733 202.152 261.377 262.691 246.486C285.506 240.874 309.667 234.579 327.826 218.841C356.617 193.891 359.739 152.764 344.805 124.764C330.816 98.5326 303.625 80.4528 280.018 61.9178Z" fill="#8AB4F8"/>
</g>
<g id="Group_117">
<path id="Vector_60" d="M312.891 250.831C288.294 255.096 284.935 247.344 270.279 253.292C259.112 257.824 262.481 261.749 249.672 267.081C240.255 271 234.089 270.689 221.463 277.047C213.489 281.062 210.913 283.722 210.668 286.756C210.394 290.145 213.063 293.485 215.821 295.123C220.324 297.799 225.672 296.3 228.138 295.629C228.138 295.629 245.075 291.024 265.835 288.158C281.394 286.012 280.276 291.072 294.623 289.071C309.426 287.007 329.743 278.955 332.726 265.091C333.695 260.589 333.076 254.357 329.36 251.235C325.466 247.965 319.948 249.607 312.891 250.831Z" fill="#79AACC"/>
</g>
<g id="Group_118">
<path id="Vector_61" d="M306.991 23.5884C303.786 17.72 300.136 10.4666 293.56 6.90795C288.89 4.38117 281.217 1.15202 276.139 0.318915C268.888 -0.86993 261.613 1.55876 254.983 2.79207C247.873 4.11563 233.861 8.25892 235.905 16.7156C237.923 25.0545 245.067 29.2109 253.338 32.5237C259.658 35.0557 266.885 37.2503 273.484 38.2665C286.014 40.1969 303.572 42.6766 308.082 30.4364L306.991 23.5884Z" fill="#79AACC"/>
</g>
<g id="Group_119">
<g id="Group_120">
<path id="Vector_62" d="M337.44 210.074C337.012 210.074 336.584 209.914 336.252 209.595L330.303 203.865L324.355 209.595C323.69 210.235 322.643 210.235 321.979 209.595L313.607 201.532L315.982 199.054L323.166 205.974L329.114 200.245C329.778 199.606 330.826 199.606 331.489 200.245L337.439 205.975L343.388 200.245C344.052 199.607 345.1 199.607 345.763 200.245L351.712 205.975L358.898 199.055L361.272 201.533L352.899 209.596C352.236 210.236 351.187 210.236 350.524 209.596L344.574 203.867L338.625 209.596C338.296 209.914 337.868 210.074 337.44 210.074Z" fill="#EAEAEA"/>
</g>
</g>
<g id="Group_121">
<g id="Group_122">
<g id="Group_123">
<path id="Vector_63" d="M69.277 65.1666C69.277 63.6063 70.5387 62.3429 72.0939 62.3429C73.6505 62.3429 74.9109 63.6076 74.9109 65.1666C74.9109 66.7268 73.6492 67.9915 72.0939 67.9915C70.5387 67.9915 69.277 66.7268 69.277 65.1666ZM56.2726 65.1666C56.2726 63.6063 57.5342 62.3429 59.0895 62.3429C60.6461 62.3429 61.9078 63.6076 61.9078 65.1666C61.9078 66.7268 60.6461 67.9915 59.0895 67.9915C57.5342 67.9915 56.2726 66.7268 56.2726 65.1666ZM43.2694 65.1666C43.2694 63.6063 44.5311 62.3429 46.0864 62.3429C47.6429 62.3429 48.9033 63.6076 48.9033 65.1666C48.9033 66.7268 47.6416 67.9915 46.0864 67.9915C44.5311 67.9915 43.2694 66.7268 43.2694 65.1666ZM69.2405 89.8433C69.2405 88.283 70.5022 87.0183 72.0574 87.0183C73.614 87.0183 74.8744 88.283 74.8744 89.8433C74.8744 91.4035 73.6127 92.6683 72.0574 92.6683C70.5009 92.6683 69.2405 91.4035 69.2405 89.8433ZM56.236 89.8433C56.236 88.283 57.4977 87.0183 59.053 87.0183C60.6095 87.0183 61.8699 88.283 61.8699 89.8433C61.8699 91.4035 60.6082 92.6683 59.053 92.6683C57.4977 92.6683 56.236 91.4035 56.236 89.8433ZM43.2315 89.8433C43.2315 88.283 44.4932 87.0183 46.0498 87.0183C47.6064 87.0183 48.8668 88.283 48.8668 89.8433C48.8668 91.4035 47.6051 92.6683 46.0498 92.6683C44.4932 92.6683 43.2315 91.4035 43.2315 89.8433Z" fill="#F1DBCD"/>
</g>
</g>
<g id="Group_124">
<g id="Group_125">
<path id="Vector_64" d="M69.35 77.9326C69.35 76.3723 70.6117 75.1089 72.167 75.1089C73.7236 75.1089 74.984 76.3723 74.984 77.9326C74.984 79.4928 73.7223 80.7562 72.167 80.7562C70.6117 80.7562 69.35 79.4928 69.35 77.9326ZM56.3469 77.9326C56.3469 76.3723 57.6086 75.1089 59.1652 75.1089C60.7217 75.1089 61.9821 76.3723 61.9821 77.9326C61.9821 79.4928 60.7204 80.7562 59.1652 80.7562C57.6073 80.7562 56.3469 79.4928 56.3469 77.9326ZM43.3425 77.9326C43.3425 76.3723 44.6042 75.1089 46.1594 75.1089C47.716 75.1089 48.9777 76.3723 48.9777 77.9326C48.9777 79.4928 47.716 80.7562 46.1594 80.7562C44.6042 80.7562 43.3425 79.4928 43.3425 77.9326ZM69.3135 102.609C69.3135 101.049 70.5752 99.7856 72.1305 99.7856C73.6871 99.7856 74.9474 101.049 74.9474 102.609C74.9474 104.17 73.6857 105.433 72.1305 105.433C70.5752 105.433 69.3135 104.168 69.3135 102.609ZM56.3091 102.609C56.3091 101.049 57.5708 99.7856 59.126 99.7856C60.6826 99.7856 61.9443 101.049 61.9443 102.609C61.9443 104.17 60.6826 105.433 59.126 105.433C57.5708 105.433 56.3091 104.168 56.3091 102.609ZM43.3059 102.609C43.3059 101.049 44.5676 99.7856 46.1229 99.7856C47.6794 99.7856 48.9398 101.049 48.9398 102.609C48.9398 104.17 47.6781 105.433 46.1229 105.433C44.5676 105.433 43.3059 104.168 43.3059 102.609Z" fill="#F1DBCD"/>
</g>
</g>
</g>
<g id="Group_126">
<g id="Group_127">
<g id="Group_128">
<g id="Group_129">
<path id="Vector_65" d="M85.9087 64.9063C85.4742 64.9063 85.0397 64.7402 84.707 64.408C84.0429 63.7423 84.0429 62.6646 84.707 62.0002L97.8406 48.8353C98.5048 48.1709 99.5799 48.1709 100.243 48.8353C100.907 49.501 100.907 50.5787 100.243 51.2431L87.109 64.408C86.7776 64.7402 86.3431 64.9063 85.9087 64.9063Z" fill="#B3AFA2"/>
</g>
</g>
<g id="Group_130">
<g id="Group_131">
<path id="Vector_66" d="M99.0423 64.9063C98.6078 64.9063 98.1733 64.7402 97.8406 64.408L84.707 51.2431C84.0429 50.5787 84.0429 49.4997 84.707 48.8353C85.3711 48.1709 86.4449 48.1709 87.109 48.8353L100.243 62.0002C100.907 62.6659 100.907 63.7436 100.243 64.408C99.9113 64.7402 99.4767 64.9063 99.0423 64.9063Z" fill="#B3AFA2"/>
</g>
</g>
</g>
<g id="Group_132">
<g id="Group_133">
<g id="Group_134">
<path id="Vector_67" d="M55.8198 41.3766C55.217 41.3766 54.6129 41.1451 54.1523 40.6847C53.2312 39.7614 53.2312 38.2639 54.1523 37.3405L72.3888 19.0606C73.31 18.1372 74.8026 18.1372 75.7238 19.0606C76.6449 19.9839 76.6449 21.4814 75.7238 22.4048L57.4873 40.6847C57.0267 41.1451 56.4226 41.3766 55.8198 41.3766Z" fill="#B3AFA2"/>
</g>
</g>
<g id="Group_135">
<g id="Group_136">
<path id="Vector_68" d="M74.0563 41.3766C73.4522 41.3766 72.8494 41.1451 72.3888 40.6847L54.1523 22.4048C53.2312 21.4814 53.2312 19.9839 54.1523 19.0606C55.0735 18.1372 56.5661 18.1372 57.4873 19.0606L75.7238 37.3405C76.6449 38.2639 76.6449 39.7614 75.7238 40.6847C75.2632 41.1451 74.6591 41.3766 74.0563 41.3766Z" fill="#B3AFA2"/>
</g>
</g>
</g>
</g>
</g>
</svg>
