<svg width="393" height="300" viewBox="0 0 393 300" fill="none" xmlns="http://www.w3.org/2000/svg">
<g id="team-bub-red2">
<g id="Group">
<path id="Vector" d="M5.2025 248.455C11.0305 261.806 13.9445 268.482 18.9322 270.74C25.9669 273.925 35.5867 271.394 41.2886 266.205C50.9956 257.37 48.9299 241.205 42.561 233.06C41.953 232.283 37.0243 228.608 27.1655 221.257C23.6328 218.624 21.6744 217.207 18.5363 216.159C16.4558 215.463 9.0064 212.974 4.21998 216.349C-1.48453 220.37 0.0254864 230.3 0.78922 235.33C1.0523 237.063 1.67644 240.377 5.2025 248.455Z" fill="#EA4335"/>
</g>
<g id="Group_2">
<path id="Vector_2" d="M80.8175 279.036C62.653 259.979 74.1949 234.478 42.5597 205.911C30.9493 195.427 26.4636 196.214 17.8988 186.391C-0.15972 165.682 -5.53539 133.146 6.30718 113.484C30.6983 72.9859 134.903 75.8645 203.855 95.7798C219.025 100.162 333.138 133.12 333.393 192.684C333.581 236.679 271.531 266.594 255.099 274.515C197.449 302.309 110.301 309.968 80.8175 279.036Z" fill="#EA4335"/>
</g>
<g id="Group_3">
<g id="Group_4">
<g id="Group_5">
<path id="Vector_3" d="M175.146 10.4876C175.461 10.8302 175.779 11.1456 176.06 11.4907C176.218 11.6859 175.979 11.779 175.863 11.8798C174.529 13.0289 173.192 14.1742 171.856 15.3207C170.415 16.5578 168.966 17.7883 167.538 19.0409C167.26 19.2839 167.119 19.2671 166.879 18.9983C166.078 18.1025 166.066 18.1115 166.964 17.3411C169.542 15.1281 172.118 12.9126 174.702 10.7061C174.822 10.6014 174.916 10.3752 175.146 10.4876Z" fill="#636061"/>
</g>
<g id="Group_6">
<path id="Vector_4" d="M142.194 33.7419C140.563 32.8927 138.965 31.9516 137.328 31.114C137.037 30.9654 136.971 30.8206 137.166 30.5595C137.295 30.3875 137.424 30.2092 137.504 30.0153C137.679 29.5913 137.884 29.5513 138.307 29.7865C141.436 31.529 144.578 33.2481 147.725 34.9609C148.058 35.1418 148.133 35.2776 147.928 35.6136C147.327 36.6038 147.346 36.6051 146.291 36.0492L142.194 33.7419Z" fill="#636061"/>
</g>
<g id="Group_7">
<path id="Vector_5" d="M90.0628 43.1316C89.989 43.1742 89.9098 43.2234 89.8266 43.2647C89.5769 43.3914 89.3138 43.4986 89.0763 43.6447C88.7702 43.8321 88.6145 43.783 88.4414 43.456C86.7636 40.3085 85.0697 37.1687 83.3691 34.0316C83.2201 33.7575 83.2187 33.6037 83.5422 33.4861C83.9221 33.3478 84.2912 32.9289 84.6321 33.0324C84.969 33.1345 85.0563 33.6606 85.2415 34.0057C86.8012 36.8895 88.3541 39.7759 89.9044 42.6636C89.9796 42.8032 90.1259 42.9299 90.0628 43.1316Z" fill="#636061"/>
</g>
<g id="Group_8">
<path id="Vector_6" d="M175.524 26.7398C175.616 26.8019 175.628 26.8122 175.641 26.82C176.828 27.5245 176.828 27.5258 175.997 28.5702C173.935 31.1619 171.866 33.7485 169.817 36.3505C169.561 36.6763 169.389 36.6698 169.079 36.432C168.166 35.7327 168.161 35.7468 168.86 34.8691C170.915 32.2916 172.965 29.7103 175.028 27.138C175.162 26.9726 175.237 26.6364 175.524 26.7398Z" fill="#636061"/>
</g>
<g id="Group_9">
<path id="Vector_7" d="M140.83 4.65544C140.907 4.61796 141.002 4.56756 141.101 4.52361C144.441 3.05131 147.783 1.58161 151.119 0.100269C151.423 -0.0354562 151.54 0.0304207 151.673 0.310919C152.19 1.39413 152.2 1.39155 151.105 1.87628C148.023 3.23611 144.936 4.58953 141.86 5.961C141.507 6.1187 141.339 6.08244 141.221 5.71792C141.132 5.44647 140.975 5.19445 140.856 4.93205C140.818 4.8532 140.752 4.77307 140.83 4.65544Z" fill="#636061"/>
</g>
<g id="Group_10">
<path id="Vector_8" d="M123.089 52.4798C123.063 52.5625 123.009 52.5896 122.942 52.5883C122.881 52.587 122.819 52.5715 122.756 52.5638C121.426 52.4048 121.427 52.4061 121.651 51.1316C122.204 47.9854 122.764 44.8404 123.298 41.6915C123.368 41.2831 123.497 41.1797 123.925 41.2611C125.032 41.4718 125.035 41.4525 124.846 42.524C124.28 45.7285 123.718 48.9341 123.154 52.1398C123.133 52.2574 123.109 52.3763 123.089 52.4798Z" fill="#636061"/>
</g>
<g id="Group_11">
<path id="Vector_9" d="M98.5404 52.5752C98.625 52.5455 98.7256 52.5055 98.829 52.4757C102.34 51.483 105.854 50.4929 109.363 49.4924C109.615 49.4213 109.712 49.4613 109.794 49.7095C110.195 50.9207 110.2 50.9104 108.943 51.2645C105.747 52.1642 102.551 53.0665 99.3605 53.9868C99.0035 54.0902 98.8545 54.0359 98.7874 53.6843C98.7337 53.4038 98.6236 53.1324 98.5431 52.8558C98.5189 52.7705 98.4666 52.6851 98.5404 52.5752Z" fill="#636061"/>
</g>
<g id="Group_12">
<path id="Vector_10" d="M126.364 23.1954C125.778 22.933 125.782 22.9343 126.05 22.3591C127.419 19.399 128.789 16.4402 130.145 13.4749C130.278 13.1854 130.393 13.1259 130.699 13.2629C131.763 13.7412 131.762 13.727 131.279 14.7675C130.006 17.504 128.738 20.2417 127.472 22.9795C127.201 23.5676 127.207 23.5703 126.62 23.3105C126.534 23.2717 126.45 23.2329 126.364 23.1954Z" fill="#636061"/>
</g>
<g id="Group_13">
<path id="Vector_11" d="M112.922 24.0769C112.587 24.3354 112.267 24.6069 111.92 24.8383C111.717 24.974 111.658 24.7297 111.576 24.6314C110.298 23.1152 109.029 21.5925 107.756 20.0711C106.889 19.0331 106.031 17.9874 105.15 16.9611C104.923 16.6987 104.884 16.5513 105.197 16.3173C106.074 15.6594 106.061 15.6465 106.752 16.475C108.752 18.8702 110.753 21.2629 112.752 23.6594C112.847 23.777 113.039 23.8727 112.922 24.0769Z" fill="#636061"/>
</g>
<g id="Group_14">
<path id="Vector_12" d="M83.2563 61.5332C83.2174 61.6547 83.1396 61.7077 83.0067 61.6677C82.9772 61.6586 82.9476 61.6482 82.9168 61.6404C81.7101 61.3483 81.7141 61.3496 82.0993 60.2186C83.0483 57.4304 83.9999 54.6436 84.9301 51.8489C85.0509 51.4857 85.1556 51.3694 85.573 51.5154C86.5408 51.8528 86.5488 51.8256 86.2254 52.7783C85.263 55.6104 84.3006 58.4426 83.3396 61.2747C83.3114 61.36 83.2845 61.4466 83.2563 61.5332Z" fill="#636061"/>
</g>
<g id="Group_15">
<path id="Vector_13" d="M142.857 14.0076C142.913 14.1485 142.95 14.2286 142.977 14.3101C143.981 17.4033 144.979 20.4991 145.99 23.5898C146.072 23.838 146.011 23.9258 145.76 24.006C144.657 24.3601 144.662 24.368 144.317 23.3067C143.406 20.503 142.5 17.6967 141.57 14.8982C141.446 14.5285 141.524 14.3927 141.901 14.3152C142.221 14.2518 142.526 14.1187 142.857 14.0076Z" fill="#636061"/>
</g>
<g id="Group_16">
<path id="Vector_14" d="M127.302 32.4453C127.533 32.5759 127.392 32.7956 127.334 32.9468C127.22 33.248 127.407 33.6746 126.981 33.8375C126.87 33.8801 126.707 33.7987 126.568 33.7729C123.438 33.1744 120.309 32.5682 117.176 31.9878C116.777 31.9141 116.709 31.7822 116.789 31.4242C117.002 30.4793 116.987 30.4728 117.968 30.6602C120.945 31.2277 123.921 31.7965 126.896 32.3652C127.02 32.3872 127.143 32.413 127.302 32.4453Z" fill="#636061"/>
</g>
<g id="Group_17">
<path id="Vector_15" d="M103.233 41.8247C103.142 42.025 102.96 41.9358 102.832 41.8958C102.48 41.7846 102.041 41.941 101.775 41.592C101.735 41.539 101.79 41.4175 101.806 41.3283C102.334 38.2247 102.866 35.1224 103.382 32.0175C103.436 31.6957 103.547 31.6323 103.866 31.684C104.929 31.856 104.931 31.8444 104.759 32.8642C104.274 35.7287 103.79 38.5931 103.305 41.4576C103.283 41.5778 103.257 41.6954 103.233 41.8247Z" fill="#636061"/>
</g>
<g id="Group_18">
<path id="Vector_16" d="M154.443 20.3284C154.686 20.0776 154.93 19.7984 155.206 19.5502C155.404 19.3705 155.51 19.6006 155.622 19.7001C157.286 21.1776 158.946 22.6589 160.607 24.1403C161.345 24.7982 162.071 25.4691 162.823 26.1128C163.078 26.3313 163.058 26.4618 162.835 26.688C162.105 27.4352 162.113 27.4443 161.317 26.7333C159.091 24.7491 156.866 22.7637 154.645 20.7756C154.521 20.667 154.284 20.5895 154.443 20.3284Z" fill="#636061"/>
</g>
<g id="Group_19">
<path id="Vector_17" d="M88.5649 25.7588C87.9112 25.3503 87.9153 25.3516 88.3528 24.7053C89.9447 22.3488 91.5353 19.9924 93.1245 17.6347C93.4654 17.128 93.4641 17.1266 93.9567 17.4524C94.6385 17.9022 94.6466 17.9061 94.1808 18.6002C92.6117 20.9347 91.0373 23.2653 89.4629 25.5959C89.1192 26.1052 89.1152 26.1026 88.5649 25.7588Z" fill="#636061"/>
</g>
<g id="Group_20">
<path id="Vector_18" d="M80.9034 70.1731C80.9209 70.1537 80.9101 70.1641 80.9007 70.177C80.2296 71.0624 80.2296 71.0638 79.3625 70.3567C77.1707 68.569 74.9828 66.7762 72.7815 65.0001C72.497 64.7713 72.4634 64.6356 72.7184 64.3615C73.352 63.679 73.3426 63.6609 74.1009 64.2788C76.3317 66.091 78.5585 67.9084 80.7853 69.7259C80.9182 69.8332 81.1531 69.9159 80.9034 70.1731Z" fill="#636061"/>
</g>
</g>
<g id="Group_21">
<path id="Vector_19" d="M95.2506 68.3286C95.566 68.6711 95.8841 68.9865 96.1633 69.3316C96.3217 69.5268 96.0841 69.6199 95.9673 69.7208C94.6331 70.8699 93.2963 72.0151 91.9607 73.1617C90.5192 74.3987 89.0709 75.6306 87.6428 76.8818C87.3649 77.1248 87.224 77.1081 86.9837 76.8392C86.1824 75.9434 86.1703 75.9524 87.0683 75.182C89.6467 72.9691 92.2225 70.7535 94.8076 68.547C94.9257 68.4436 95.0197 68.2174 95.2506 68.3286Z" fill="#636061"/>
</g>
<g id="Group_22">
<path id="Vector_20" d="M62.2986 91.5828C60.6678 90.7335 59.0692 89.7925 57.433 88.9549C57.1417 88.8063 57.076 88.6615 57.2706 88.4004C57.3995 88.2284 57.5283 88.05 57.6089 87.8561C57.7834 87.4322 57.9887 87.3921 58.4115 87.6273C61.5403 89.3698 64.6824 91.089 67.83 92.8018C68.1629 92.9827 68.238 93.1184 68.0327 93.4545C67.4313 94.4446 67.4501 94.4459 66.3951 93.8901L62.2986 91.5828Z" fill="#636061"/>
</g>
<g id="Group_23">
<path id="Vector_21" d="M95.6277 84.5819C95.719 84.6439 95.7311 84.6543 95.7445 84.662C96.9297 85.3678 96.931 85.3677 96.1002 86.4122C94.0385 89.0039 91.9688 91.5905 89.9205 94.1925C89.6642 94.5183 89.4923 94.5118 89.1823 94.2739C88.2696 93.5746 88.2642 93.5889 88.9635 92.7112C91.0185 90.1337 93.0681 87.5523 95.1311 84.98C95.2653 84.8145 95.3418 84.4785 95.6277 84.5819Z" fill="#636061"/>
</g>
<g id="Group_24">
<path id="Vector_22" d="M60.9336 62.4963C61.0101 62.4588 61.1054 62.4084 61.2047 62.3645C64.5442 60.8922 67.8864 59.4224 71.2218 57.9411C71.5265 57.8053 71.6433 57.8713 71.7762 58.1518C72.2929 59.235 72.3037 59.2324 71.2084 59.7172C68.1253 61.077 65.0395 62.4304 61.9617 63.8019C61.6087 63.9596 61.4409 63.9233 61.3228 63.5588C61.2342 63.2874 61.0772 63.0353 60.9577 62.7729C60.9228 62.6954 60.8557 62.6139 60.9336 62.4963Z" fill="#636061"/>
</g>
<g id="Group_25">
<path id="Vector_23" d="M43.1919 110.322C43.1664 110.404 43.1127 110.432 43.0456 110.43C42.9825 110.429 42.9221 110.412 42.859 110.406C41.5288 110.247 41.5302 110.247 41.753 108.974C42.306 105.827 42.8657 102.682 43.3999 99.5335C43.4697 99.125 43.5986 99.0217 44.0267 99.1031C45.1341 99.3138 45.1354 99.2944 44.9475 100.366C44.3824 103.57 43.82 106.776 43.2563 109.982C43.2362 110.099 43.212 110.217 43.1919 110.322Z" fill="#636061"/>
</g>
<g id="Group_26">
<path id="Vector_24" d="M18.645 110.417C18.7296 110.388 18.8302 110.348 18.9336 110.318C22.4449 109.325 25.9575 108.335 29.4675 107.335C29.7198 107.262 29.8165 107.303 29.8997 107.552C30.301 108.763 30.3064 108.752 29.0487 109.107C25.8528 110.006 22.657 110.909 19.4665 111.829C19.1094 111.932 18.9604 111.878 18.8933 111.526C18.8396 111.246 18.7296 110.975 18.649 110.698C18.6235 110.613 18.5712 110.527 18.645 110.417Z" fill="#636061"/>
</g>
<g id="Group_27">
<path id="Vector_25" d="M46.4683 81.0362C45.8831 80.7738 45.8871 80.7751 46.1542 80.1999C47.5233 77.2398 48.8937 74.281 50.2493 71.3157C50.3822 71.0262 50.4977 70.9667 50.8037 71.1037C51.8681 71.582 51.8667 71.5678 51.3835 72.6084C50.1111 75.3448 48.8427 78.0826 47.577 80.8203C47.3058 81.4085 47.3112 81.4111 46.726 81.1513C46.6387 81.1138 46.5528 81.075 46.4683 81.0362Z" fill="#636061"/>
</g>
<g id="Group_28">
<path id="Vector_26" d="M33.0257 81.919C32.6902 82.1775 32.3694 82.4477 32.0217 82.6803C31.8191 82.8161 31.76 82.5717 31.6781 82.4735C30.4003 80.9572 29.1305 79.4346 27.8581 77.9132C26.991 76.8752 26.1333 75.8295 25.2515 74.8031C25.026 74.5407 24.9857 74.3934 25.2985 74.1594C26.1763 73.5015 26.1629 73.4898 26.8541 74.3171C28.854 76.7123 30.8553 79.105 32.8526 81.5015C32.9506 81.6191 33.1438 81.7148 33.0257 81.919Z" fill="#636061"/>
</g>
<g id="Group_29">
<path id="Vector_27" d="M34.4069 66.9427C34.5049 66.8936 34.5841 66.8483 34.6687 66.8108C37.8243 65.451 40.9825 64.0964 44.1341 62.7288C44.3932 62.6163 44.475 62.6848 44.5811 62.9072C45.0871 63.9658 45.0911 63.9568 43.9918 64.4299C41.2228 65.6204 38.4551 66.8148 35.6874 68.0104C34.9975 68.3077 34.9988 68.3103 34.6995 67.6653C34.6217 67.4998 34.5411 67.3356 34.4687 67.1676C34.4405 67.1004 34.4297 67.0268 34.4069 66.9427Z" fill="#636061"/>
</g>
<g id="Group_30">
<path id="Vector_28" d="M62.9617 71.8496C63.0181 71.9905 63.0543 72.0707 63.0812 72.1521C64.0851 75.2453 65.0838 78.3412 66.0945 81.4318C66.1763 81.68 66.116 81.7679 65.865 81.8481C64.7616 82.2023 64.767 82.21 64.422 81.15C63.5107 78.3463 62.6047 75.54 61.6758 72.7415C61.5524 72.3718 61.6302 72.2361 62.0074 72.1586C62.3255 72.0926 62.6288 71.9608 62.9617 71.8496Z" fill="#636061"/>
</g>
<g id="Group_31">
<path id="Vector_29" d="M47.4051 90.2861C47.636 90.4167 47.4951 90.6364 47.4373 90.7877C47.3233 91.0888 47.5098 91.5154 47.0843 91.6783C46.9729 91.721 46.8105 91.6396 46.6709 91.6137C43.5408 91.0152 40.4121 90.4089 37.2793 89.8285C36.8806 89.7549 36.8122 89.623 36.8927 89.265C37.1048 88.3201 37.09 88.3136 38.0712 88.501C41.0483 89.0685 44.024 89.6373 46.9998 90.2061C47.1233 90.2293 47.2467 90.2551 47.4051 90.2861Z" fill="#636061"/>
</g>
<g id="Group_32">
<path id="Vector_30" d="M23.3361 99.6666C23.2449 99.867 23.0637 99.7778 22.9348 99.7377C22.5831 99.6266 22.1442 99.783 21.8785 99.434C21.8382 99.381 21.8932 99.2595 21.9093 99.1703C22.4368 96.0667 22.9697 92.9644 23.4851 89.8596C23.5388 89.5377 23.6502 89.4744 23.9697 89.5261C25.0327 89.698 25.0341 89.6863 24.8623 90.7062C24.3777 93.5706 23.8932 96.4351 23.4086 99.3008C23.3871 99.4184 23.3616 99.5374 23.3361 99.6666Z" fill="#636061"/>
</g>
<g id="Group_33">
<path id="Vector_31" d="M74.5465 78.1704C74.7895 77.9196 75.0338 77.6404 75.3089 77.3923C75.5076 77.2126 75.6136 77.4426 75.725 77.5422C77.3894 79.0196 79.0498 80.501 80.7088 81.9823C81.447 82.6403 82.1731 83.3111 82.9248 83.9548C83.1798 84.1733 83.1597 84.3039 82.9369 84.5314C82.2067 85.2785 82.2148 85.2876 81.4188 84.5766C79.1934 82.5924 76.9679 80.6083 74.7465 78.6189C74.6244 78.5078 74.3868 78.4302 74.5465 78.1704Z" fill="#636061"/>
</g>
<g id="Group_34">
<path id="Vector_32" d="M8.66951 83.5996C8.01584 83.1912 8.01987 83.1925 8.45744 82.5461C10.0493 80.1897 11.6399 77.8332 13.2291 75.4755C13.5714 74.9688 13.5687 74.9675 14.0613 75.2932C14.7431 75.7431 14.7512 75.7469 14.2841 76.4411C12.715 78.7755 11.1406 81.1062 9.56612 83.4381C9.22251 83.9461 9.21982 83.9448 8.66951 83.5996Z" fill="#636061"/>
</g>
<g id="Group_35">
<path id="Vector_33" d="M25.3683 48.4456C25.2971 48.4908 25.2085 48.5529 25.1159 48.6071C21.9805 50.4504 18.8436 52.2898 15.7135 54.1409C15.4277 54.3102 15.3042 54.2571 15.1364 53.9947C14.4908 52.9787 14.48 52.9813 15.5082 52.3764C18.4021 50.674 21.2999 48.9794 24.1871 47.2666C24.5186 47.0702 24.6891 47.087 24.8515 47.4347C24.9723 47.6945 25.1589 47.9259 25.3106 48.1741C25.3562 48.2465 25.4314 48.3189 25.3683 48.4456Z" fill="#636061"/>
</g>
<g id="Group_36">
<path id="Vector_34" d="M37.4551 28.3865C38.0685 28.5804 38.0632 28.5791 37.8699 29.1814C36.8739 32.2759 35.8767 35.3704 34.8941 38.4701C34.7975 38.7739 34.6915 38.845 34.3693 38.7429C33.2539 38.39 33.2566 38.4029 33.6096 37.3158C34.5371 34.454 35.4592 31.5908 36.3813 28.7277C36.5786 28.1137 36.5733 28.1111 37.1867 28.3024C37.2766 28.3296 37.3652 28.358 37.4551 28.3865Z" fill="#636061"/>
</g>
<g id="Group_37">
<path id="Vector_35" d="M51.1634 41.0079C51.0722 41.0673 50.9983 41.1229 50.9192 41.1682C47.9528 42.8783 44.9838 44.5833 42.0215 46.3012C41.7785 46.4421 41.6886 46.3838 41.5557 46.1757C40.9235 45.183 40.9195 45.1908 41.9543 44.5962C44.5583 43.098 47.1595 41.596 49.7608 40.0953C50.4091 39.7217 50.4078 39.7191 50.7849 40.3253C50.8816 40.4818 50.9822 40.6356 51.0749 40.7933C51.1111 40.854 51.1299 40.9264 51.1634 41.0079Z" fill="#636061"/>
</g>
<g id="Group_38">
<path id="Vector_36" d="M22.206 39.388C22.1335 39.2548 22.0865 39.1799 22.0503 39.101C20.6745 36.1435 19.3014 33.1847 17.9175 30.2297C17.8061 29.9919 17.8544 29.8989 18.0947 29.7903C19.1457 29.3133 19.1403 29.3055 19.6128 30.319C20.8624 32.9999 22.1066 35.682 23.3737 38.3551C23.5415 38.708 23.4811 38.8515 23.116 38.9717C22.8086 39.0751 22.5227 39.2406 22.206 39.388Z" fill="#636061"/>
</g>
<g id="Group_39">
<path id="Vector_37" d="M74.6727 21.5343C75.372 21.8652 75.368 21.864 75.0136 22.5568C73.7224 25.0774 72.4325 27.5993 71.144 30.1212C70.8675 30.6628 70.8688 30.6641 70.34 30.3978C69.6071 30.0294 69.5991 30.0255 69.9776 29.2836C71.2487 26.7875 72.5251 24.2928 73.8029 21.7993C74.0808 21.2526 74.0848 21.2551 74.6727 21.5343Z" fill="#636061"/>
</g>
<g id="Group_40">
<path id="Vector_38" d="M53.6882 55.7087C52.0573 54.8608 50.4587 53.9185 48.8225 53.0809C48.5313 52.9322 48.4655 52.7874 48.6601 52.5263C48.7876 52.3544 48.9178 52.176 48.9984 51.9821C49.1729 51.5581 49.3782 51.5181 49.801 51.7533C52.9298 53.4958 56.072 55.215 59.2195 56.9264C59.5511 57.1074 59.6275 57.2431 59.4235 57.5792C58.8209 58.5693 58.841 58.5706 57.786 58.0148L53.6882 55.7087Z" fill="#636061"/>
</g>
<g id="Group_41">
<path id="Vector_39" d="M60.7685 39.5444C60.8248 39.6853 60.8611 39.7655 60.8879 39.8469C61.8906 42.9402 62.8905 46.036 63.9012 49.1267C63.9831 49.3748 63.9227 49.4628 63.6717 49.5429C62.5684 49.8971 62.5738 49.9048 62.2288 48.8448C61.3174 46.0411 60.4114 43.2349 59.4813 40.4363C59.3578 40.0667 59.4356 39.9309 59.8128 39.8534C60.1309 39.7875 60.4356 39.6556 60.7685 39.5444Z" fill="#636061"/>
</g>
<g id="Group_42">
<path id="Vector_40" d="M69.5763 41.9991C69.8192 41.7483 70.0635 41.469 70.3386 41.2209C70.5373 41.0412 70.6433 41.2713 70.7547 41.3708C72.4191 42.8483 74.0795 44.3296 75.7398 45.811C76.478 46.4689 77.2042 47.1398 77.9558 47.7835C78.2109 48.002 78.1907 48.1325 77.9679 48.3587C77.2377 49.1059 77.2458 49.1149 76.4498 48.404C74.2244 46.4185 71.999 44.4343 69.7776 42.4463C69.6541 42.3377 69.4165 42.2602 69.5763 41.9991Z" fill="#636061"/>
</g>
<g id="Group_43">
<path id="Vector_41" d="M29.3923 66.312C29.3668 66.3947 29.3131 66.4219 29.246 66.4206C29.1843 66.418 29.1212 66.4024 29.0594 66.396C27.7293 66.237 27.7306 66.2383 27.9534 64.9638C28.5064 61.8176 29.0661 58.6726 29.6004 55.5238C29.6702 55.1153 29.799 55.0119 30.2272 55.0934C31.3345 55.3041 31.3359 55.2833 31.148 56.3549C30.5829 59.5593 30.0205 62.765 29.4567 65.9707C29.4353 66.0897 29.4111 66.2085 29.3923 66.312Z" fill="#636061"/>
</g>
<g id="Group_44">
<path id="Vector_42" d="M4.84412 66.4076C4.92869 66.3779 5.02935 66.3377 5.1327 66.308C8.64399 65.314 12.1566 64.3252 15.6666 63.3247C15.9189 63.2536 16.0156 63.2936 16.0974 63.5418C16.4988 64.753 16.5041 64.7426 15.2465 65.0968C12.0506 65.9965 8.85473 66.8988 5.66423 67.8191C5.3072 67.9225 5.15821 67.8682 5.09109 67.5166C5.0374 67.2348 4.92734 66.9647 4.84681 66.6881C4.82265 66.6027 4.7703 66.5175 4.84412 66.4076Z" fill="#636061"/>
</g>
</g>
<g id="Group_45">
<path id="Vector_43" d="M136.746 251.007C168.49 263.735 197.313 258.254 225.799 254.192C240.851 252.044 256.186 251.589 271.937 251.747C288 251.907 303.805 251.604 318.392 247.464C368.023 233.378 393.214 169.043 364.823 109.575C347.943 74.2189 312.664 58.1362 280.742 52.7512C216.857 41.9746 198.298 19.5386 150.77 35.2905C106.492 49.9643 29.6728 80.0254 45.8186 163.719C51.8037 194.747 110.094 240.319 136.746 251.007Z" fill="#F28B82"/>
</g>
<g id="Group_46">
<path id="Vector_44" d="M334.3 290.562C328.954 290.562 323.995 287.231 322.343 282.06C320.316 275.714 324.027 268.964 330.617 267.012C337.206 265.06 344.217 268.634 346.244 274.981C348.271 281.328 344.559 288.078 337.969 290.03C336.75 290.39 335.515 290.562 334.3 290.562ZM334.287 267.769C333.203 267.769 332.102 267.923 331.012 268.245C325.129 269.987 321.816 276.015 323.626 281.679C325.435 287.343 331.693 290.535 337.576 288.792C343.457 287.05 346.771 281.022 344.962 275.358C343.487 270.744 339.059 267.769 334.287 267.769Z" fill="#636061"/>
</g>
<g id="Group_47">
<path id="Vector_45" d="M324.744 275.923C323.274 275.923 321.816 275.578 320.481 274.897C318.324 273.797 316.741 271.955 316.025 269.708C314.544 265.073 317.255 260.14 322.07 258.714C326.883 257.289 332.005 259.9 333.487 264.536C334.204 266.783 333.97 269.163 332.829 271.24C331.687 273.316 329.774 274.841 327.443 275.531C326.554 275.793 325.646 275.923 324.744 275.923ZM324.751 259.615C323.993 259.615 323.224 259.723 322.463 259.948C318.356 261.164 316.043 265.373 317.306 269.327C317.918 271.243 319.269 272.814 321.108 273.753C322.948 274.69 325.057 274.883 327.046 274.293C329.035 273.704 330.667 272.403 331.642 270.631C332.616 268.86 332.815 266.83 332.203 264.913C331.174 261.693 328.082 259.615 324.751 259.615Z" fill="#636061"/>
</g>
<g id="Group_48">
<path id="Vector_46" d="M258.953 261.15C247.655 261.15 236.482 259.148 223.624 256.843C208.419 254.118 191.184 251.029 168.342 250.037C144.79 249.016 101.609 241.655 77.0257 203.839C67.222 188.758 61.002 172.545 58.539 155.65C56.2398 139.883 57.4317 124.007 61.9873 109.738C69.3199 86.7665 84.5785 69.3549 104.95 60.7111C119.235 54.65 135.327 52.441 150.586 50.6985C169.173 48.5773 183.162 46.0787 195.947 42.599C197.841 42.0832 199.736 41.561 201.634 41.0375C227.332 33.9539 253.907 26.63 284.94 34.7761C299.503 38.5996 322.695 50.3444 342.652 64.0009C356.627 73.565 380.978 92.3144 387.046 110.429C393.414 129.438 394.681 147.446 390.813 163.953C387.484 178.152 380.268 191.589 369.364 203.889C350.131 225.586 323.404 240.022 299.796 251.281C284.346 258.65 271.572 261.15 258.953 261.15ZM257.006 32.0939C237.473 32.0939 219.476 37.0536 201.891 41.9009C199.992 42.4244 198.097 42.9467 196.2 43.4624C183.367 46.9551 169.333 49.4615 150.696 51.5892C135.508 53.3239 119.494 55.52 105.325 61.532C85.2053 70.0684 70.1306 87.281 62.8785 110C58.3632 124.145 57.182 139.887 59.4625 155.523C61.9081 172.293 68.0837 188.387 77.8163 203.361C102.174 240.829 145.014 248.124 168.384 249.139C191.292 250.133 208.558 253.227 223.794 255.959C250.839 260.806 270.379 264.308 299.381 250.477C322.904 239.258 349.528 224.88 368.652 203.308C379.456 191.12 386.605 177.813 389.9 163.756C393.732 147.408 392.473 129.56 386.157 110.706C383.587 103.037 374.448 86.866 342.11 64.7351C322.235 51.1342 299.161 39.4424 284.693 35.6447C275.077 33.1189 265.883 32.0939 257.006 32.0939Z" fill="#CDC4B9"/>
</g>
<g id="Group_49">
<path id="Vector_47" d="M371.753 52.8559C369.397 38.4497 344.671 28.0842 339.212 25.795C318.616 17.1603 298.428 17.0943 296.566 17.1047C282.497 17.1822 276.567 20.4384 264.952 16.8242C260.759 15.5186 255.88 13.3354 249.562 13.8176C247.974 13.9391 241.517 14.4316 239.179 18.1866C236.622 22.2933 240.325 28.163 244.185 31.529C250.808 37.3031 258.538 36.2716 271.72 39.2808C285.336 42.3883 282.914 44.8197 318.909 59.8581C329.644 64.3422 338.069 67.5569 348.947 68.3144C354.445 68.697 361.91 69.1339 367.026 65.4473C372.939 61.183 371.957 54.1085 371.753 52.8559Z" fill="#EA4335"/>
</g>
<g id="Group_50">
<g id="Group_51">
<path id="Vector_48" d="M80.3397 208.412C83.7047 208.412 85.4013 210.37 86.7636 211.944C88.0616 213.442 88.8119 214.222 90.4078 214.222C92.0037 214.222 92.754 213.442 94.052 211.944C95.4157 210.37 97.1109 208.412 100.476 208.412C103.84 208.412 105.536 210.37 106.9 211.944C108.196 213.442 108.948 214.222 110.544 214.222C112.14 214.222 112.89 213.442 114.188 211.944C115.552 210.37 117.247 208.412 120.612 208.412C123.977 208.412 125.672 210.37 127.036 211.944C128.333 213.442 129.084 214.222 130.68 214.222C131.68 214.222 132.491 215.003 132.491 215.966C132.491 216.929 131.68 217.71 130.68 217.71C127.317 217.71 125.62 215.752 124.256 214.178C122.96 212.68 122.208 211.9 120.612 211.9C119.016 211.9 118.266 212.68 116.968 214.178C115.604 215.752 113.909 217.71 110.544 217.71C107.18 217.71 105.484 215.752 104.12 214.178C102.822 212.68 102.072 211.9 100.476 211.9C98.88 211.9 98.1297 212.68 96.8318 214.178C95.468 215.752 93.7728 217.71 90.4078 217.71C87.0428 217.71 85.3462 215.752 83.9839 214.178C82.6859 212.68 81.9356 211.9 80.3397 211.9C78.7438 211.9 77.9921 212.68 76.6955 214.178C75.3318 215.752 73.6352 217.71 70.2715 217.71C69.2716 217.71 68.4622 216.929 68.4622 215.966C68.4622 215.003 69.2729 214.222 70.2715 214.222C71.8675 214.222 72.6191 213.442 73.9157 211.944C75.2794 210.37 76.976 208.412 80.3397 208.412Z" fill="white"/>
</g>
</g>
</g>
</svg>
