<svg width="393" height="299" viewBox="0 0 393 299" fill="none" xmlns="http://www.w3.org/2000/svg">
<g id="team-bub-red1">
<g id="Group">
<g id="Group_2">
<path id="Vector" d="M92.3457 46.2546C91.7256 46.2546 91.1044 46.0176 90.631 45.5437C89.6843 44.5958 89.6843 43.058 90.631 42.1102L109.379 23.3393C110.326 22.3915 111.86 22.3915 112.808 23.3393C113.755 24.2872 113.755 25.825 112.808 26.7728L94.0604 45.5437C93.5858 46.0176 92.9657 46.2546 92.3457 46.2546Z" fill="#BD9D7B"/>
</g>
<g id="Group_3">
<path id="Vector_2" d="M111.093 46.2546C110.473 46.2546 109.851 46.0176 109.378 45.5437L90.63 26.7728C89.6833 25.825 89.6833 24.2872 90.63 23.3393C91.5767 22.3915 93.1114 22.3915 94.0593 23.3393L112.807 42.1102C113.754 43.058 113.754 44.5958 112.807 45.5437C112.334 46.0176 111.714 46.2546 111.093 46.2546Z" fill="#BD9D7B"/>
</g>
</g>
<path id="Vector_3" d="M15.4036 194.421C32.7451 199.697 42.6856 215.237 44.1278 217.557C50.4528 227.738 47.996 230.116 54.4344 238.337C60.4881 246.068 63.4257 244.942 73.0456 253.836C81.1913 261.367 91.4768 270.876 91.1576 283.4C91.1009 285.613 90.8889 293.96 85.7078 297.335C72.2789 306.084 37.92 273.33 32.2447 267.79C32.2447 267.79 2.36783 238.627 0.163774 208.905C-0.108652 205.23 -0.584439 197.515 3.88778 194.389C4.95282 193.646 7.80402 192.109 15.4036 194.421Z" fill="#F1DBCD"/>
<path id="Vector_4" d="M198.126 41.962C216.524 53.6794 215.789 78.0967 246.483 94.588C257.749 100.64 260.691 98.8793 269.611 105.113C288.415 118.256 301.694 144.51 299.047 164.055C293.592 204.309 219.055 227.271 164.487 227.206C152.48 227.191 62.1745 227.085 44.6444 176.685C31.6961 139.458 66.8686 98.9891 76.1816 88.2739C108.86 50.673 168.264 22.9431 198.126 41.962Z" fill="#EA4335"/>
<g id="Group_4">
<g id="Group_5">
<path id="Vector_5" d="M123.278 70.4163C122.832 70.4163 122.384 70.2459 122.043 69.9041C121.361 69.2216 121.361 68.1145 122.043 67.4308L135.545 53.9126C136.226 53.2301 137.332 53.2301 138.014 53.9126C138.695 54.5951 138.695 55.7022 138.014 56.386L124.512 69.9041C124.172 70.2459 123.724 70.4163 123.278 70.4163Z" fill="#BD9D7B"/>
</g>
<g id="Group_6">
<path id="Vector_6" d="M136.78 70.4163C136.332 70.4163 135.886 70.2459 135.545 69.9041L122.043 56.386C121.361 55.7034 121.361 54.5964 122.043 53.9126C122.724 53.2301 123.83 53.2301 124.512 53.9126L138.014 67.4308C138.695 68.1133 138.695 69.2203 138.014 69.9041C137.673 70.2459 137.227 70.4163 136.78 70.4163Z" fill="#BD9D7B"/>
</g>
</g>
<g id="Group_7">
<g id="Group_8">
<path id="Vector_7" d="M170.283 257.746C169.45 257.746 168.644 257.294 168.228 256.505C166.711 253.621 163.935 251.368 160.801 250.479C159.568 250.128 158.852 248.844 159.202 247.609C159.552 246.375 160.836 245.657 162.068 246.009C166.463 247.256 170.205 250.293 172.334 254.339C172.931 255.475 172.497 256.879 171.363 257.478C171.019 257.659 170.648 257.746 170.283 257.746Z" fill="#CDC4B9"/>
</g>
<g id="Group_9">
<path id="Vector_8" d="M43.8382 194.874C43.4178 194.874 42.9925 194.76 42.6091 194.521C41.5231 193.839 41.1928 192.406 41.872 191.318C46.6105 183.732 52.0553 176.524 58.0536 169.89C58.914 168.939 60.3821 168.867 61.3313 169.727C62.2817 170.588 62.3532 172.057 61.494 173.009C55.6794 179.439 50.401 186.428 45.8068 193.781C45.3679 194.487 44.6111 194.874 43.8382 194.874Z" fill="#CDC4B9"/>
</g>
<g id="Group_10">
<path id="Vector_9" d="M82.4486 154.776C81.5475 154.776 80.6908 154.248 80.3136 153.366C78.3314 148.729 74.8108 144.832 70.399 142.394C69.2773 141.774 68.8692 140.36 69.488 139.237C70.1081 138.114 71.5195 137.706 72.6413 138.326C77.953 141.263 82.1934 145.954 84.5799 151.538C85.0841 152.718 84.538 154.083 83.3595 154.588C83.0624 154.715 82.7518 154.776 82.4486 154.776Z" fill="#CDC4B9"/>
</g>
<g id="Group_11">
<path id="Vector_10" d="M75.5554 178.477C74.4509 178.477 73.4721 177.685 73.2737 176.559C72.2012 170.508 70.3275 164.621 67.7019 159.065C67.1545 157.905 67.6489 156.52 68.8076 155.972C69.9651 155.423 71.3494 155.917 71.898 157.079C74.6987 163.009 76.6993 169.291 77.8433 175.748C78.0676 177.012 77.2256 178.218 75.9634 178.441C75.8253 178.465 75.6897 178.477 75.5554 178.477Z" fill="#CDC4B9"/>
</g>
<g id="Group_12">
<path id="Vector_11" d="M88.8833 166.112C88.0734 166.112 87.2881 165.687 86.8616 164.931C86.2305 163.814 86.625 162.396 87.7405 161.765C96.6776 156.709 106.241 152.809 116.164 150.173C117.403 149.841 118.673 150.583 119.002 151.824C119.331 153.064 118.592 154.336 117.354 154.665C107.813 157.199 98.6166 160.949 90.0223 165.809C89.6623 166.014 89.2716 166.112 88.8833 166.112Z" fill="#CDC4B9"/>
</g>
<g id="Group_13">
<path id="Vector_12" d="M101.194 129.044C101.135 129.044 101.077 129.042 101.018 129.038L81.5487 127.571C80.2704 127.474 79.3126 126.359 79.4088 125.079C79.5049 123.799 80.6267 122.839 81.8963 122.936L101.365 124.404C102.644 124.5 103.602 125.616 103.505 126.895C103.414 128.116 102.396 129.044 101.194 129.044Z" fill="#CDC4B9"/>
</g>
<g id="Group_14">
<path id="Vector_13" d="M32.9227 186.439C31.9365 186.439 31.0206 185.803 30.71 184.811L26.7419 172.157C26.3586 170.933 27.0378 169.629 28.2606 169.244C29.4847 168.857 30.7864 169.54 31.1698 170.765L35.1378 183.419C35.5212 184.643 34.842 185.947 33.6191 186.332C33.3862 186.406 33.1532 186.439 32.9227 186.439Z" fill="#CDC4B9"/>
</g>
<g id="Group_15">
<path id="Vector_14" d="M166.783 188.268C165.731 188.268 164.778 187.546 164.526 186.475L161.644 174.182C161.351 172.933 162.125 171.683 163.372 171.389C164.62 171.094 165.869 171.871 166.162 173.12L169.044 185.412C169.337 186.661 168.563 187.911 167.316 188.205C167.137 188.248 166.958 188.268 166.783 188.268Z" fill="#CDC4B9"/>
</g>
<g id="Group_16">
<path id="Vector_15" d="M93.9595 148.073C93.1496 148.073 92.3632 147.647 91.9366 146.891C91.3067 145.772 91.7012 144.356 92.818 143.725L101.126 139.032C102.242 138.402 103.657 138.797 104.288 139.915C104.918 141.033 104.524 142.45 103.407 143.081L95.0985 147.773C94.7373 147.977 94.3466 148.073 93.9595 148.073Z" fill="#CDC4B9"/>
</g>
<g id="Group_17">
<path id="Vector_16" d="M174.02 228.715C173.289 228.715 172.572 228.372 172.12 227.728C168.039 221.917 162.531 217.167 156.187 213.989C155.041 213.415 154.576 212.019 155.15 210.872C155.724 209.725 157.118 209.258 158.263 209.834C165.292 213.356 171.397 218.618 175.916 225.056C176.654 226.105 176.401 227.555 175.352 228.292C174.946 228.578 174.48 228.715 174.02 228.715Z" fill="#CDC4B9"/>
</g>
<g id="Group_18">
<path id="Vector_17" d="M64.9542 195.545C64.4081 195.545 63.8596 195.352 63.4183 194.962C62.458 194.113 62.368 192.645 63.2161 191.683C66.8427 187.573 72.0521 184.92 77.5067 184.405C78.7875 184.285 79.9142 185.223 80.035 186.501C80.1558 187.778 79.2189 188.911 77.9419 189.031C73.6484 189.436 69.5484 191.525 66.6935 194.76C66.235 195.28 65.5952 195.545 64.9542 195.545Z" fill="#CDC4B9"/>
</g>
<g id="Group_19">
<path id="Vector_18" d="M137.217 175.594C135.993 175.594 134.97 174.635 134.902 173.396C134.582 167.461 133.636 161.542 132.09 155.801C131.756 154.562 132.49 153.287 133.727 152.953C134.97 152.618 136.238 153.354 136.573 154.592C138.201 160.644 139.199 166.887 139.537 173.147C139.606 174.428 138.625 175.523 137.345 175.592C137.302 175.593 137.259 175.594 137.217 175.594Z" fill="#CDC4B9"/>
</g>
<g id="Group_20">
<path id="Vector_19" d="M149.399 179.798C149.168 179.798 148.934 179.763 148.702 179.69C147.479 179.307 146.8 178.002 147.185 176.778L151.157 164.125C151.541 162.902 152.842 162.222 154.066 162.606C155.288 162.989 155.968 164.294 155.583 165.518L151.611 178.171C151.301 179.163 150.386 179.798 149.399 179.798Z" fill="#CDC4B9"/>
</g>
<g id="Group_21">
<path id="Vector_20" d="M60.6435 210.169C60.3082 210.169 59.9679 210.096 59.6462 209.942L50.0213 205.346C48.8638 204.794 48.3732 203.407 48.9255 202.249C49.4765 201.09 50.8657 200.6 52.0183 201.152L61.6444 205.748C62.8019 206.3 63.2913 207.687 62.7403 208.846C62.3409 209.68 61.5088 210.169 60.6435 210.169Z" fill="#CDC4B9"/>
</g>
<g id="Group_22">
<path id="Vector_21" d="M39.4855 231.929C39.0639 231.929 38.6362 231.814 38.2528 231.572C33.7264 228.723 30.0048 224.718 27.4901 219.992C26.8873 218.859 27.3163 217.452 28.4467 216.85C29.5795 216.247 30.9836 216.676 31.5852 217.807C33.7202 221.82 36.8796 225.219 40.7231 227.639C41.8079 228.323 42.1346 229.756 41.4516 230.843C41.0103 231.545 40.2559 231.929 39.4855 231.929Z" fill="#CDC4B9"/>
</g>
<g id="Group_23">
<path id="Vector_22" d="M56.0652 139.072C55.6054 139.072 55.1407 138.936 54.7352 138.651C53.6861 137.914 53.431 136.465 54.1669 135.415C57.8724 130.123 63.2876 126.088 69.4166 124.054C70.6332 123.652 71.9461 124.311 72.3491 125.529C72.7522 126.747 72.0927 128.061 70.8761 128.465C65.6889 130.187 61.1045 133.602 57.9685 138.082C57.5161 138.728 56.7962 139.072 56.0652 139.072Z" fill="#CDC4B9"/>
</g>
<g id="Group_24">
<path id="Vector_23" d="M33.518 161.481C32.6305 161.481 31.7824 160.968 31.3978 160.104C30.8764 158.931 31.4015 157.558 32.5713 157.036C41.1287 153.215 50.2124 151.035 59.5685 150.557C60.853 150.483 61.939 151.478 62.0044 152.759C62.0697 154.04 61.0848 155.133 59.8052 155.198C51.0211 155.647 42.4945 157.693 34.461 161.28C34.1541 161.416 33.8348 161.481 33.518 161.481Z" fill="#CDC4B9"/>
</g>
<g id="Group_25">
<path id="Vector_24" d="M22.8491 213.542C22.6444 213.542 22.4349 213.515 22.2278 213.457C20.9926 213.114 20.269 211.833 20.6117 210.597C22.07 205.333 24.2161 200.279 26.9885 195.577C27.6393 194.471 29.0631 194.105 30.1664 194.758C31.2696 195.409 31.637 196.833 30.9849 197.939C28.4196 202.291 26.4337 206.967 25.0852 211.84C24.798 212.867 23.8648 213.542 22.8491 213.542Z" fill="#CDC4B9"/>
</g>
<g id="Group_26">
<path id="Vector_25" d="M122.711 181.474C122.188 181.474 121.663 181.299 121.23 180.938L108.211 170.118C107.225 169.299 107.089 167.834 107.907 166.846C108.726 165.858 110.189 165.723 111.175 166.543L124.195 177.363C125.181 178.182 125.317 179.647 124.498 180.635C124.038 181.188 123.377 181.474 122.711 181.474Z" fill="#CDC4B9"/>
</g>
<g id="Group_27">
<path id="Vector_26" d="M167.94 243.279C167.432 243.279 166.921 243.113 166.494 242.771C165.492 241.972 165.328 240.509 166.126 239.506C169.23 235.609 172.921 232.258 177.097 229.544C178.17 228.847 179.61 229.152 180.307 230.228C181.005 231.304 180.699 232.743 179.624 233.442C175.867 235.883 172.546 238.898 169.754 242.403C169.297 242.979 168.623 243.279 167.94 243.279Z" fill="#CDC4B9"/>
</g>
<g id="Group_28">
<path id="Vector_27" d="M168.28 211.782C167.505 211.782 166.746 211.393 166.308 210.685C160.696 201.642 152.357 194.061 142.826 189.341C141.677 188.772 141.206 187.378 141.776 186.228C142.343 185.078 143.733 184.605 144.885 185.175C155.329 190.348 164.101 198.321 170.25 208.232C170.926 209.322 170.592 210.755 169.503 211.431C169.122 211.67 168.698 211.782 168.28 211.782Z" fill="#CDC4B9"/>
</g>
<g id="Group_29">
<path id="Vector_28" d="M151.244 294.52C149.974 294.52 148.94 293.498 148.924 292.224C148.843 285.324 147.679 278.51 145.465 271.974C145.053 270.758 145.704 269.438 146.917 269.027C148.134 268.612 149.449 269.267 149.86 270.481C152.23 277.482 153.476 284.78 153.564 292.17C153.579 293.452 152.553 294.505 151.271 294.521C151.263 294.52 151.253 294.52 151.244 294.52Z" fill="#CDC4B9"/>
</g>
<g id="Group_30">
<path id="Vector_29" d="M91.5952 196.204C90.969 196.204 90.3453 195.952 89.8867 195.454C89.0189 194.509 89.0793 193.04 90.0223 192.171C96.0021 186.66 102.794 182.179 110.209 178.849C111.379 178.323 112.752 178.848 113.276 180.018C113.8 181.189 113.277 182.564 112.108 183.088C105.15 186.213 98.7769 190.419 93.1657 195.589C92.7194 196.002 92.1561 196.204 91.5952 196.204Z" fill="#CDC4B9"/>
</g>
<g id="Group_31">
<path id="Vector_30" d="M118.22 143.263C117.082 143.263 116.089 142.425 115.925 141.265C115.746 139.995 116.63 138.819 117.898 138.64C124.359 137.727 130.935 137.49 137.449 137.936C138.727 138.024 139.694 139.132 139.606 140.414C139.519 141.693 138.407 142.647 137.132 142.573C130.943 142.149 124.691 142.373 118.547 143.241C118.437 143.256 118.327 143.263 118.22 143.263Z" fill="#CDC4B9"/>
</g>
<g id="Group_32">
<path id="Vector_31" d="M151.751 226.555C151.03 226.555 150.32 226.22 149.866 225.59C145.475 219.491 141.747 212.896 138.784 205.989C138.279 204.81 138.822 203.444 140.001 202.938C141.178 202.43 142.542 202.977 143.048 204.156C145.877 210.751 149.438 217.048 153.631 222.874C154.38 223.914 154.145 225.367 153.104 226.117C152.695 226.412 152.22 226.555 151.751 226.555Z" fill="#CDC4B9"/>
</g>
<g id="Group_33">
<path id="Vector_32" d="M73.3735 210.785C72.1877 210.785 71.1756 209.88 71.0659 208.674C70.9488 207.397 71.8881 206.265 73.1639 206.148L91.5878 204.45C92.8513 204.336 93.994 205.273 94.1111 206.55C94.2282 207.828 93.2889 208.959 92.0131 209.077L73.5892 210.775C73.5165 210.781 73.445 210.785 73.3735 210.785Z" fill="#CDC4B9"/>
</g>
<g id="Group_34">
<path id="Vector_33" d="M134.046 217.913C133.803 217.913 133.556 217.875 133.315 217.795C128.947 216.345 124.938 214.116 121.402 211.169C120.417 210.348 120.282 208.883 121.102 207.897C121.922 206.911 123.384 206.776 124.37 207.597C127.416 210.134 131.014 212.136 134.775 213.384C135.992 213.788 136.651 215.102 136.247 216.32C135.924 217.296 135.018 217.913 134.046 217.913Z" fill="#CDC4B9"/>
</g>
<g id="Group_35">
<path id="Vector_34" d="M149.966 251.224C149.394 251.224 148.819 251.013 148.371 250.589C147.44 249.706 147.4 248.235 148.281 247.304C153.484 241.802 157.219 235.012 159.08 227.667C159.396 226.424 160.659 225.673 161.901 225.986C163.143 226.302 163.894 227.566 163.58 228.81C161.522 236.921 157.399 244.42 151.652 250.497C151.195 250.98 150.581 251.224 149.966 251.224Z" fill="#CDC4B9"/>
</g>
<g id="Group_36">
<path id="Vector_35" d="M71.3013 235.799C70.9722 235.799 70.6381 235.729 70.3213 235.58L52.6125 227.301C51.4513 226.758 50.9496 225.375 51.4919 224.213C52.0343 223.05 53.4162 222.548 54.5762 223.091L72.285 231.37C73.4462 231.913 73.9479 233.295 73.4056 234.458C73.0111 235.302 72.1753 235.799 71.3013 235.799Z" fill="#CDC4B9"/>
</g>
<g id="Group_37">
<path id="Vector_36" d="M104.148 229.087C104.137 229.087 104.126 229.087 104.114 229.087C102.834 229.068 101.809 228.014 101.827 226.731C101.936 218.808 103.069 210.921 105.195 203.288C105.539 202.053 106.821 201.331 108.054 201.675C109.288 202.02 110.01 203.301 109.665 204.537C107.647 211.783 106.571 219.272 106.468 226.796C106.449 228.067 105.415 229.087 104.148 229.087Z" fill="#CDC4B9"/>
</g>
<g id="Group_38">
<path id="Vector_37" d="M107.355 243.572C106.57 243.572 105.803 243.172 105.368 242.45C104.705 241.352 105.056 239.924 106.153 239.26L129.312 225.246C130.408 224.582 131.835 224.934 132.498 226.032C133.162 227.13 132.81 228.558 131.713 229.222L108.555 243.237C108.179 243.465 107.764 243.572 107.355 243.572Z" fill="#CDC4B9"/>
</g>
<g id="Group_39">
<path id="Vector_38" d="M166.703 282.354C166.522 282.354 166.338 282.333 166.155 282.288C164.91 281.985 164.144 280.729 164.446 279.482L168.576 262.442C168.878 261.194 170.134 260.429 171.378 260.731C172.624 261.034 173.388 262.29 173.086 263.537L168.957 280.577C168.698 281.641 167.749 282.354 166.703 282.354Z" fill="#CDC4B9"/>
</g>
<g id="Group_40">
<path id="Vector_39" d="M81.2394 250.701C80.7524 250.701 80.2618 250.549 79.8439 250.232C78.8208 249.459 78.6174 248.002 79.3891 246.977C83.3731 241.691 84.8708 234.412 83.2967 227.978C82.9922 226.732 83.754 225.475 84.9991 225.169C86.2404 224.863 87.499 225.626 87.8047 226.874C89.7301 234.745 87.9686 243.307 83.0933 249.777C82.6385 250.381 81.942 250.701 81.2394 250.701Z" fill="#CDC4B9"/>
</g>
<g id="Group_41">
<path id="Vector_40" d="M106.473 262.883C101.347 262.883 96.2351 259.897 94.1124 255.095C93.5946 253.921 94.1247 252.549 95.2958 252.03C96.4681 251.513 97.8388 252.041 98.3565 253.215C100.118 257.198 105.56 259.338 109.557 257.62C110.734 257.114 112.099 257.658 112.604 258.838C113.109 260.017 112.565 261.383 111.387 261.889C109.818 262.564 108.144 262.883 106.473 262.883Z" fill="#CDC4B9"/>
</g>
<g id="Group_42">
<path id="Vector_41" d="M131.225 258.016C131.08 258.016 130.933 258.003 130.785 257.974C129.526 257.732 128.702 256.514 128.943 255.254C129.966 249.919 131.931 244.869 134.784 240.246C135.457 239.155 136.888 238.816 137.976 239.491C139.066 240.165 139.405 241.596 138.731 242.687C136.177 246.829 134.416 251.351 133.501 256.13C133.287 257.242 132.315 258.016 131.225 258.016Z" fill="#CDC4B9"/>
</g>
<g id="Group_43">
<path id="Vector_42" d="M51.4562 267.396C50.8707 267.396 50.2839 267.175 49.8327 266.733C45.3654 262.355 42.6942 256.255 42.5031 249.999C42.4637 248.716 43.4708 247.645 44.7516 247.606C46.0052 247.582 47.1023 248.574 47.1418 249.857C47.2958 254.924 49.4605 259.866 53.0784 263.413C53.9943 264.31 54.0103 265.782 53.1129 266.699C52.6593 267.163 52.0577 267.396 51.4562 267.396Z" fill="#CDC4B9"/>
</g>
<g id="Group_44">
<path id="Vector_43" d="M43.0764 242.697C43.0345 242.697 42.9925 242.696 42.9494 242.694C36.9215 242.368 30.8937 240.741 25.5166 237.988C24.3752 237.404 23.924 236.004 24.5071 234.861C25.0901 233.72 26.4868 233.266 27.6295 233.851C32.432 236.309 37.8152 237.762 43.1996 238.053C44.4792 238.122 45.4616 239.217 45.3926 240.498C45.3248 241.738 44.3004 242.697 43.0764 242.697Z" fill="#CDC4B9"/>
</g>
<g id="Group_45">
<path id="Vector_44" d="M68.7003 268.491C67.5736 268.491 66.5851 267.666 66.4088 266.517C65.6396 261.468 65.3881 256.321 65.6642 251.219C65.7333 249.938 66.8217 248.967 68.1062 249.025C69.3857 249.094 70.367 250.189 70.2992 251.47C70.0403 256.255 70.277 261.082 70.9981 265.816C71.1916 267.085 70.3213 268.27 69.0541 268.463C68.9346 268.481 68.8162 268.491 68.7003 268.491Z" fill="#CDC4B9"/>
</g>
<g id="Group_46">
<path id="Vector_45" d="M157.891 264.122C157.848 264.122 157.804 264.12 157.76 264.118L138.262 263.033C136.983 262.963 136.003 261.867 136.075 260.584C136.145 259.305 137.239 258.342 138.52 258.394L158.018 259.479C159.297 259.549 160.277 260.646 160.206 261.927C160.137 263.164 159.112 264.122 157.891 264.122Z" fill="#CDC4B9"/>
</g>
<g id="Group_47">
<path id="Vector_46" d="M110.95 273.912C110.269 273.912 109.596 273.614 109.138 273.042C108.336 272.041 108.498 270.579 109.498 269.777C113.308 266.721 117.46 264.075 121.837 261.915C122.988 261.347 124.379 261.821 124.945 262.971C125.51 264.123 125.038 265.515 123.889 266.083C119.813 268.094 115.947 270.558 112.399 273.403C111.97 273.746 111.459 273.912 110.95 273.912Z" fill="#CDC4B9"/>
</g>
<g id="Group_48">
<path id="Vector_47" d="M96.0489 283.138C87.7874 283.138 79.4544 281.495 71.8265 278.351C70.6418 277.862 70.076 276.504 70.5642 275.317C71.0523 274.13 72.407 273.566 73.5941 274.053C81.2257 277.199 89.6192 278.725 97.8684 278.463C99.1824 278.428 100.222 279.429 100.261 280.712C100.302 281.994 99.2958 283.067 98.0163 283.107C97.3617 283.128 96.7059 283.138 96.0489 283.138Z" fill="#CDC4B9"/>
</g>
<g id="Group_49">
<path id="Vector_48" d="M132.874 299C132.74 299 132.603 298.989 132.468 298.964C131.205 298.741 130.363 297.535 130.588 296.271L132.824 283.63C133.047 282.367 134.25 281.519 135.514 281.748C136.776 281.972 137.617 283.178 137.394 284.441L135.157 297.082C134.956 298.208 133.978 299 132.874 299Z" fill="#CDC4B9"/>
</g>
<g id="Group_50">
<path id="Vector_49" d="M122.487 281.105C121.592 281.105 120.739 280.583 120.359 279.709C119.847 278.533 120.384 277.163 121.558 276.652L135.641 270.507C136.814 269.991 138.184 270.532 138.694 271.708C139.207 272.884 138.669 274.254 137.495 274.765L123.412 280.91C123.111 281.044 122.796 281.105 122.487 281.105Z" fill="#CDC4B9"/>
</g>
<g id="Group_51">
<path id="Vector_50" d="M114.199 200.888C113.496 200.888 112.801 200.569 112.345 199.965C111.574 198.94 111.777 197.484 112.8 196.71C117.738 192.979 123.124 189.844 128.805 187.393C129.983 186.886 131.347 187.43 131.855 188.608C132.362 189.786 131.819 191.152 130.642 191.661C125.301 193.965 120.239 196.911 115.596 200.419C115.178 200.736 114.686 200.888 114.199 200.888Z" fill="#CDC4B9"/>
</g>
<g id="Group_52">
<path id="Vector_51" d="M52.5952 252.226C52.0418 252.226 51.4871 252.029 51.0433 251.63C50.0904 250.773 50.014 249.304 50.8707 248.349L57.3978 241.089C58.2558 240.135 59.7239 240.06 60.6755 240.916C61.6284 241.775 61.7048 243.244 60.8481 244.198L54.321 251.458C53.8625 251.967 53.2301 252.226 52.5952 252.226Z" fill="#CDC4B9"/>
</g>
<g id="Group_53">
<path id="Vector_52" d="M108.926 296.548C108.402 296.548 107.878 296.535 107.354 296.511C106.074 296.449 105.087 295.36 105.149 294.078C105.21 292.797 106.289 291.805 107.578 291.87C112.036 292.09 116.542 291.231 120.614 289.398C121.784 288.873 123.157 289.394 123.682 290.564C124.207 291.734 123.686 293.109 122.517 293.635C118.26 295.55 113.591 296.548 108.926 296.548Z" fill="#CDC4B9"/>
</g>
<g id="Group_54">
<path id="Vector_53" d="M142.725 294.989C141.625 294.989 140.649 294.203 140.444 293.082L139.604 288.461C139.373 287.199 140.21 285.989 141.47 285.758C142.736 285.531 143.94 286.366 144.17 287.627L145.01 292.248C145.24 293.51 144.404 294.72 143.144 294.951C143.002 294.977 142.863 294.989 142.725 294.989Z" fill="#CDC4B9"/>
</g>
<g id="Group_55">
<path id="Vector_54" d="M42.9752 172.235C42.3034 172.235 41.6366 171.943 41.1768 171.382C40.3656 170.388 40.5123 168.925 41.5046 168.113L44.6739 165.516C45.665 164.701 47.127 164.848 47.9393 165.842C48.7517 166.834 48.605 168.298 47.6139 169.111L44.4421 171.71C44.0119 172.063 43.4917 172.235 42.9752 172.235Z" fill="#CDC4B9"/>
</g>
<g id="Group_56">
<path id="Vector_55" d="M43.7975 220.145C42.6252 220.145 41.6181 219.257 41.4924 218.065C41.2828 216.071 40.4125 214.166 39.0442 212.7C38.1678 211.763 38.2171 210.294 39.1539 209.417C40.0908 208.54 41.5589 208.589 42.4329 209.527C44.4878 211.726 45.7932 214.586 46.1076 217.579C46.2419 218.855 45.3174 219.998 44.0428 220.132C43.9602 220.141 43.8788 220.145 43.7975 220.145Z" fill="#CDC4B9"/>
</g>
<g id="Group_57">
<path id="Vector_56" d="M93.7672 179.971C93.1299 179.971 92.4938 179.709 92.0353 179.194L88.4975 175.228C87.6432 174.271 87.7258 172.803 88.6811 171.947C89.6352 171.092 91.1033 171.175 91.9576 172.131L95.4979 176.099C96.3509 177.057 96.2684 178.524 95.3118 179.38C94.8693 179.777 94.3182 179.971 93.7672 179.971Z" fill="#CDC4B9"/>
</g>
<g id="Group_58">
<path id="Vector_57" d="M141.582 154.353C141.35 154.353 141.116 154.318 140.884 154.244C139.662 153.859 138.984 152.554 139.369 151.33L140.82 146.717C141.206 145.492 142.509 144.813 143.731 145.199C144.954 145.585 145.632 146.889 145.247 148.112L143.795 152.727C143.483 153.717 142.568 154.353 141.582 154.353Z" fill="#CDC4B9"/>
</g>
<g id="Group_59">
<path id="Vector_58" d="M89.0953 271.511C88.9782 271.511 88.8586 271.502 88.7403 271.484C87.4731 271.289 86.6052 270.102 86.8 268.834L87.3769 265.082C87.5717 263.814 88.7526 262.939 90.0235 263.139C91.2895 263.334 92.1585 264.52 91.9638 265.789L91.3869 269.541C91.2094 270.689 90.2207 271.511 89.0953 271.511Z" fill="#CDC4B9"/>
</g>
<g id="Group_60">
<path id="Vector_59" d="M161.607 280.961C160.715 280.961 159.864 280.443 159.482 279.571L159.213 278.96C158.697 277.785 159.231 276.414 160.404 275.898C161.578 275.381 162.947 275.916 163.462 277.091L163.73 277.701C164.246 278.876 163.713 280.248 162.539 280.763C162.236 280.898 161.919 280.961 161.607 280.961Z" fill="#CDC4B9"/>
</g>
<g id="Group_61">
<path id="Vector_60" d="M41.4172 147.041C41.0819 147.041 40.7417 146.968 40.4199 146.814C39.2624 146.261 38.773 144.875 39.324 143.717C40.2264 141.824 41.718 140.195 43.5238 139.13C44.6271 138.477 46.0496 138.847 46.7005 139.953C47.3514 141.059 46.9828 142.483 45.8795 143.134C44.8613 143.734 44.0219 144.651 43.514 145.717C43.1158 146.554 42.2837 147.041 41.4172 147.041Z" fill="#CDC4B9"/>
</g>
<g id="Group_62">
<path id="Vector_61" d="M36.3458 252.504C35.0651 252.504 34.0259 251.464 34.0259 250.181V248.987C34.0259 247.704 35.0651 246.664 36.3458 246.664C37.6266 246.664 38.6658 247.704 38.6658 248.987V250.181C38.667 251.465 37.6278 252.504 36.3458 252.504Z" fill="#CDC4B9"/>
</g>
<g id="Group_63">
<path id="Vector_62" d="M109.457 284.772C108.605 284.772 107.785 284.302 107.38 283.487L106.485 281.694C105.912 280.546 106.376 279.152 107.523 278.577C108.672 278.004 110.063 278.468 110.637 279.616L111.532 281.409C112.105 282.557 111.64 283.951 110.494 284.527C110.16 284.693 109.806 284.772 109.457 284.772Z" fill="#CDC4B9"/>
</g>
</g>
<path id="Vector_63" d="M186.543 95.9987C223.549 91.7247 233.56 93.8907 245.703 84.4096C263.975 70.1436 256.812 53.1364 273.997 38.0546C291.707 22.5112 323.763 19.1196 342.159 30.3286C378.677 52.5798 375.172 140.786 340.873 200.298C310.326 253.302 244.942 301.609 173.683 291.721C167.544 290.869 80.1274 277.465 66.9376 213.174C58.0055 169.636 87.3288 123.302 120.953 107.587C132.359 102.257 150.421 100.172 186.543 95.9987Z" fill="#F28B82"/>
<g id="Group_64">
<g id="Group_65">
<path id="Vector_64" d="M258.02 231.203C257.734 230.964 257.539 230.616 257.503 230.215C257.432 229.414 258.023 228.704 258.824 228.632C264.511 228.121 267.699 230.722 270.513 233.016C273.241 235.24 275.597 237.162 280.104 236.757C284.61 236.352 286.588 234.042 288.877 231.367C291.237 228.609 293.914 225.482 299.6 224.971C305.288 224.46 308.477 227.06 311.29 229.354C314.018 231.578 316.373 233.499 320.88 233.095C325.388 232.69 327.365 230.38 329.654 227.706C332.015 224.947 334.691 221.82 340.379 221.31C346.066 220.799 349.255 223.399 352.07 225.694C354.798 227.918 357.155 229.838 361.661 229.435C362.463 229.363 363.17 229.954 363.242 230.756C363.313 231.557 362.723 232.267 361.921 232.337C356.234 232.848 353.045 230.248 350.232 227.955C347.504 225.731 345.147 223.81 340.64 224.214C336.132 224.619 334.155 226.929 331.866 229.604C329.505 232.362 326.829 235.49 321.141 235.999C315.455 236.51 312.266 233.91 309.452 231.615C306.724 229.391 304.368 227.471 299.861 227.876C295.355 228.281 293.377 230.591 291.088 233.266C288.728 236.024 286.051 239.151 280.365 239.662C274.677 240.173 271.49 237.573 268.675 235.279C265.947 233.055 263.592 231.133 259.085 231.538C258.683 231.573 258.306 231.443 258.02 231.203Z" fill="#D19079"/>
</g>
<g id="Group_66">
<path id="Vector_65" d="M259.028 242.464C258.742 242.225 258.548 241.877 258.512 241.475C258.44 240.674 259.031 239.965 259.832 239.893C265.52 239.382 268.707 241.983 271.522 244.277C274.25 246.501 276.605 248.423 281.112 248.018C285.619 247.613 287.596 245.303 289.885 242.628C292.246 239.87 294.922 236.742 300.608 236.233C306.296 235.722 309.485 238.322 312.298 240.615C315.026 242.839 317.382 244.761 321.888 244.356C326.396 243.951 328.374 241.641 330.663 238.966C333.023 236.208 335.699 233.08 341.387 232.569C347.075 232.059 350.264 234.659 353.078 236.952C355.806 239.176 358.162 241.098 362.67 240.693C363.471 240.621 364.178 241.213 364.25 242.015C364.321 242.816 363.731 243.524 362.93 243.597C357.242 244.108 354.053 241.508 351.239 239.214C348.511 236.99 346.155 235.069 341.647 235.475C337.139 235.88 335.162 238.19 332.873 240.865C330.512 243.623 327.836 246.75 322.148 247.261C316.462 247.772 313.273 245.172 310.459 242.877C307.731 240.653 305.375 238.732 300.868 239.138C296.362 239.543 294.384 241.853 292.095 244.528C289.735 247.286 287.059 250.412 281.372 250.923C275.685 251.434 272.497 248.834 269.683 246.539C266.955 244.315 264.599 242.394 260.092 242.798C259.692 242.833 259.314 242.702 259.028 242.464Z" fill="#D19079"/>
</g>
<g id="Group_67">
<path id="Vector_66" d="M260.037 253.722C259.751 253.483 259.556 253.135 259.52 252.734C259.449 251.933 260.039 251.223 260.84 251.151C266.527 250.64 269.716 253.241 272.53 255.535C275.258 257.759 277.614 259.68 282.12 259.276C286.627 258.871 288.604 256.561 290.894 253.886C293.254 251.128 295.93 248.001 301.617 247.491C307.304 246.98 310.493 249.58 313.306 251.873C316.034 254.098 318.39 256.019 322.897 255.614C327.405 255.209 329.382 252.899 331.671 250.225C334.032 247.466 336.708 244.339 342.395 243.829C348.083 243.318 351.272 245.918 354.086 248.212C356.814 250.436 359.17 252.357 363.678 251.952C364.479 251.881 365.187 252.472 365.258 253.274C365.33 254.075 364.739 254.784 363.938 254.857C358.25 255.367 355.061 252.767 352.247 250.474C349.519 248.25 347.163 246.328 342.656 246.733C338.148 247.138 336.17 249.448 333.881 252.123C331.521 254.881 328.844 258.009 323.157 258.518C317.47 259.029 314.281 256.429 311.467 254.135C308.739 251.911 306.384 249.989 301.877 250.395C297.37 250.8 295.393 253.109 293.104 255.785C290.743 258.543 288.067 261.67 282.381 262.18C276.694 262.691 273.505 260.091 270.691 257.796C267.963 255.572 265.607 253.652 261.101 254.056C260.7 254.093 260.323 253.962 260.037 253.722Z" fill="#D19079"/>
</g>
</g>
<path id="Vector_67" d="M244.338 3.54776C229.526 8.71285 222.119 11.2948 218.174 17.0597C212.61 25.1906 211.556 37.319 214.445 45.0475C219.365 58.2064 235.505 58.0509 245.554 51.4616C246.513 50.8322 251.788 45.3474 262.336 34.3754C266.115 30.4445 268.169 28.2588 270.298 24.5772C271.709 22.1372 276.761 13.3978 275.269 7.05286C273.493 -0.507807 263.493 -0.119037 258.427 0.0771999C256.681 0.146315 253.3 0.422779 244.338 3.54776Z" fill="#F1DBCD"/>
<g id="Group_68">
<path id="Vector_68" d="M389.44 96.3776C391.406 96.3776 393 97.9734 393 99.9419C393 101.91 391.406 103.506 389.44 103.506C387.474 103.506 385.88 101.91 385.88 99.9419C385.88 97.9734 387.474 96.3776 389.44 96.3776Z" fill="#CDC4B9"/>
<path id="Vector_69" d="M389.44 79.9258C391.406 79.9258 393 81.5216 393 83.4901C393 85.4587 391.406 87.0545 389.44 87.0545C387.474 87.0545 385.88 85.4587 385.88 83.4901C385.88 81.5216 387.474 79.9258 389.44 79.9258Z" fill="#CDC4B9"/>
<path id="Vector_70" d="M373.348 96.4701C375.316 96.4701 376.908 98.0659 376.908 100.034C376.908 102.003 375.315 103.599 373.348 103.599C371.382 103.599 369.788 102.003 369.788 100.034C369.788 98.0659 371.382 96.4701 373.348 96.4701Z" fill="#CDC4B9"/>
<path id="Vector_71" d="M373.348 80.0183C375.316 80.0183 376.908 81.6141 376.908 83.5827C376.908 85.5512 375.315 87.147 373.348 87.147C371.382 87.147 369.788 85.5512 369.788 83.5827C369.788 81.6141 371.382 80.0183 373.348 80.0183Z" fill="#CDC4B9"/>
<path id="Vector_72" d="M357.256 96.564C359.222 96.564 360.816 98.1598 360.816 100.128C360.816 102.097 359.222 103.693 357.256 103.693C355.289 103.693 353.696 102.097 353.696 100.128C353.696 98.1598 355.289 96.564 357.256 96.564Z" fill="#CDC4B9"/>
<path id="Vector_73" d="M357.256 80.1122C359.222 80.1122 360.816 81.708 360.816 83.6765C360.816 85.6451 359.222 87.2409 357.256 87.2409C355.289 87.2409 353.696 85.6451 353.696 83.6765C353.696 81.708 355.289 80.1122 357.256 80.1122Z" fill="#CDC4B9"/>
<path id="Vector_74" d="M341.164 96.6565C343.13 96.6565 344.724 98.2523 344.724 100.221C344.724 102.189 343.13 103.785 341.164 103.785C339.198 103.785 337.604 102.189 337.604 100.221C337.604 98.2523 339.198 96.6565 341.164 96.6565Z" fill="#CDC4B9"/>
<path id="Vector_75" d="M341.164 80.2047C343.13 80.2047 344.724 81.8005 344.724 83.7691C344.724 85.7376 343.13 87.3334 341.164 87.3334C339.198 87.3334 337.604 85.7376 337.604 83.7691C337.604 81.8005 339.198 80.2047 341.164 80.2047Z" fill="#CDC4B9"/>
</g>
</g>
</svg>
