<svg width="393" height="300" viewBox="0 0 393 300" fill="none" xmlns="http://www.w3.org/2000/svg">
<g id="team-bub-green">
<g id="gred bubble">
<g id="Group">
<path id="Vector" d="M62.5251 178.988C60.2211 182.858 47.7487 204.723 54.2693 229.464C61.0065 255.027 83.7113 267.311 92.5529 272.095C122.578 288.339 133.504 273.175 193.123 284.859C210.012 288.168 222.227 291.95 243.536 292.207C264.29 292.456 280.656 292.402 291.395 280.228C304.047 265.887 300.682 244.032 300.14 240.518C297.579 223.882 288.159 211.295 274.008 198.067C250.893 176.457 210.309 138.519 149.796 140.515C133.088 141.065 84.1418 142.678 62.5251 178.988Z" fill="#34A853"/>
</g>
<g id="Group_2">
<path id="Vector_2" d="M159.634 27.7652C138.205 34.3759 128.436 26.291 115.408 34.2257C109.366 37.9044 111.113 39.8594 104.415 43.6525C96.2504 48.2777 80.2006 52.9953 71.9722 43.7544C67.6499 38.8991 66.1287 30.9121 68.2252 24.391C71.098 15.4575 79.8757 12.0226 93.962 6.76637C97.795 5.33623 119.036 -2.32289 145.797 0.755088C151.757 1.44123 159.445 2.82589 165.398 8.96393C166.688 10.2949 171.754 15.5167 170.52 20.3486C169.684 23.6208 166.205 25.7371 159.634 27.7652Z" fill="#34A853"/>
</g>
<g id="Group_3">
<path id="Vector_3" d="M137.021 58.5146C137.557 58.5146 137.993 58.0558 137.993 57.4882C137.993 56.9219 137.557 56.4617 137.021 56.4617H125.799V41.6987H137.021C137.557 41.6987 137.993 41.2399 137.993 40.6723C137.993 40.106 137.557 39.6459 137.021 39.6459H125.799V27.7955C125.799 27.2292 125.364 26.769 124.827 26.769C124.291 26.769 123.855 27.2278 123.855 27.7955V39.6459H109.876V27.7955C109.876 27.2292 109.44 26.769 108.904 26.769C108.368 26.769 107.932 27.2278 107.932 27.7955V39.6459H93.9542V27.7955C93.9542 27.2292 93.5184 26.769 92.9822 26.769C92.446 26.769 92.0103 27.2278 92.0103 27.7955V39.6459H78.0309V27.7955C78.0309 27.2292 77.5952 26.769 77.059 26.769C76.5228 26.769 76.087 27.2278 76.087 27.7955V39.6459H73.1268H64.8657H61.9055V27.7955C61.9055 27.2292 61.4698 26.769 60.9336 26.769C60.3973 26.769 59.9616 27.2278 59.9616 27.7955V39.6459H45.9823V27.7955C45.9823 27.2292 45.5465 26.769 45.0103 26.769C44.4741 26.769 44.0384 27.2278 44.0384 27.7955V39.6459H30.0604V27.7955C30.0604 27.2292 29.6246 26.769 29.0884 26.769C28.5522 26.769 28.1165 27.2278 28.1165 27.7955V39.6459H14.1372V27.7955C14.1372 27.2292 13.7014 26.769 13.1652 26.769C12.629 26.769 12.1932 27.2278 12.1932 27.7955V39.6459H0.971956C0.435746 39.6459 0 40.1046 0 40.6723C0 41.2386 0.435746 41.6987 0.971956 41.6987H12.1932V56.4617H0.971956C0.435746 56.4617 0 56.9205 0 57.4882C0 58.0545 0.435746 58.5146 0.971956 58.5146H12.1932V73.2776H0.971956C0.435746 73.2776 0 73.7364 0 74.3041C0 74.8717 0.435746 75.3305 0.971956 75.3305H12.1932V90.0935H0.971956C0.435746 90.0935 0 90.5523 0 91.12C0 91.6876 0.435746 92.1464 0.971956 92.1464H12.1932V103.997C12.1932 104.563 12.629 105.023 13.1652 105.023C13.7014 105.023 14.1372 104.564 14.1372 103.997V92.1464H28.1165V103.997C28.1165 104.563 28.5522 105.023 29.0884 105.023C29.6246 105.023 30.0604 104.564 30.0604 103.997V92.1464H44.0384V103.997C44.0384 104.563 44.4741 105.023 45.0103 105.023C45.5465 105.023 45.9823 104.564 45.9823 103.997V92.1464H59.9616V103.997C59.9616 104.563 60.3973 105.023 60.9336 105.023C61.4698 105.023 61.9055 104.564 61.9055 103.997V92.1464H64.8657H73.1268H76.087V103.997C76.087 104.564 76.5228 105.023 77.059 105.023C77.5952 105.023 78.0309 104.564 78.0309 103.997V92.1464H92.0103V103.997C92.0103 104.563 92.446 105.023 92.9822 105.023C93.5184 105.023 93.9542 104.564 93.9542 103.997V92.1464H107.932V103.997C107.932 104.563 108.368 105.023 108.904 105.023C109.44 105.023 109.876 104.564 109.876 103.997V92.1464H123.855V103.997C123.855 104.563 124.291 105.023 124.827 105.023C125.364 105.023 125.799 104.564 125.799 103.997V92.1464H137.021C137.557 92.1464 137.993 91.6876 137.993 91.12C137.993 90.5537 137.557 90.0935 137.021 90.0935H125.799V75.3305H137.021C137.557 75.3305 137.993 74.8717 137.993 74.3041C137.993 73.7378 137.557 73.2776 137.021 73.2776H125.799V58.5146H137.021ZM123.855 41.6987V56.4617H109.876V41.6987H123.855ZM107.933 41.6987V56.4617H93.9554V41.6987H107.933ZM73.1281 73.2776H64.867H61.9068V58.5146H64.867H73.1281H76.0883V73.2776H73.1281ZM45.9835 58.5146H59.9629V73.2776H45.9835V58.5146ZM44.041 73.2776H30.063V58.5146H44.041V73.2776ZM78.0322 58.5146H92.0115V73.2776H78.0322V58.5146ZM93.9542 58.5146H107.932V73.2776H93.9542V58.5146ZM92.0103 41.6987V56.4617H78.0309V41.6987H92.0103ZM64.867 41.6987H73.1281H76.0883V56.4617H73.1281H64.867H61.9068V41.6987H64.867ZM59.9629 41.6987V56.4617H45.9835V41.6987H59.9629ZM44.041 41.6987V56.4617H30.063V41.6987H44.041ZM14.1398 41.6987H28.119V56.4617H14.1398V41.6987ZM14.1398 58.5146H28.119V73.2776H14.1398V58.5146ZM14.1398 90.0921V75.3291H28.119V90.0921H14.1398ZM30.0617 90.0921V75.3291H44.0396V90.0921H30.0617ZM45.9835 90.0921V75.3291H59.9629V90.0921H45.9835ZM73.1281 90.0921H64.867H61.9068V75.3291H64.867H73.1281H76.0883V90.0921H73.1281ZM78.0322 90.0921V75.3291H92.0115V90.0921H78.0322ZM93.9542 90.0921V75.3291H107.932V90.0921H93.9542ZM123.855 90.0921H109.876V75.3291H123.855V90.0921ZM123.855 73.2776H109.876V58.5146H123.855V73.2776Z" fill="#CDC4B9"/>
</g>
<g id="Group_4">
<path id="Vector_4" d="M344.497 248.751C304.875 277.715 242.112 287.438 185.337 266.136C143.15 250.308 150.008 234.512 101.696 218.215C67.1345 206.557 46.645 208.914 27.6063 188.233C24.9331 185.329 3.88392 161.814 7.65826 133.972C11.841 103.112 43.8765 86.4205 77.376 68.9653C93.5523 60.536 133.18 41.9565 189.407 38.6429C232.851 36.083 268.144 34.0026 294.991 57.7942C308.724 69.9656 305.662 75.9796 332.066 105.034C356.77 132.217 364.357 132.349 371.901 149.06C372.538 150.47 386.952 183.735 372.102 216.621C368.556 224.472 361.541 236.292 344.497 248.751Z" fill="#81C995"/>
</g>
<g id="Group_5">
<path id="Vector_5" d="M262.779 271.139C240.889 271.139 219.091 267.24 198.722 259.597C178.665 252.072 169.463 244.406 160.563 236.992C150.672 228.753 140.447 220.234 115.101 211.683C104.334 208.051 94.8634 205.766 86.5085 203.747C67.6224 199.188 53.9771 195.894 40.7532 181.532C36.7441 177.177 16.9278 154.064 20.6356 126.717C24.8653 95.5124 56.8422 78.8508 90.6952 61.211C124.347 43.6759 163.171 33.1661 202.968 30.8212C247.096 28.2213 281.952 26.1656 308.987 50.1267C315.444 55.8473 318.203 60.1859 322.022 66.1903C326.245 72.8271 332.026 81.9164 346.111 97.4151C356.17 108.484 363.238 114.924 368.918 120.099C377.055 127.513 381.536 131.597 386.061 141.615C386.225 141.981 390.131 150.73 392.022 163.775C394.405 180.221 392.414 196.117 386.262 209.743C380.792 221.855 371.694 232.451 358.448 242.134C338.371 256.81 312.978 266.373 285.016 269.789C277.63 270.691 270.198 271.139 262.779 271.139ZM240.033 30.6379C228.508 30.6379 216.186 31.364 203.037 32.1397C163.407 34.475 124.75 44.9379 91.2483 62.3959C57.6993 79.8773 26.0094 96.39 21.8737 126.905C18.2494 153.641 37.7121 176.335 41.6508 180.613C54.6151 194.695 68.1103 197.954 86.7877 202.462C95.1674 204.484 104.665 206.777 115.483 210.427C141.044 219.049 151.362 227.644 161.339 235.956C170.16 243.303 179.279 250.901 199.143 258.354C219.374 265.945 241.035 269.819 262.779 269.82C270.153 269.82 277.532 269.375 284.875 268.478C312.634 265.088 337.83 255.603 357.738 241.049C370.8 231.501 379.76 221.076 385.134 209.177C391.265 195.6 393.167 180.392 390.787 163.977C388.924 151.123 385.095 142.545 384.933 142.185C380.522 132.418 376.111 128.397 368.103 121.101C362.705 116.182 355.311 109.445 345.211 98.3313C331.05 82.7499 325.234 73.6056 320.986 66.9288C317.224 61.014 314.506 56.7414 308.185 51.1407C289.521 34.5976 266.944 30.6379 240.033 30.6379Z" fill="#F1DBCD"/>
</g>
<g id="Group_6">
<g id="Group_7">
<path id="Vector_6" d="M98.0612 282.354C98.0612 284.435 96.4643 286.121 94.4943 286.121C92.5243 286.121 90.9274 284.435 90.9274 282.354C90.9274 280.274 92.5243 278.587 94.4943 278.587C96.4643 278.586 98.0612 280.272 98.0612 282.354ZM114.526 282.354C114.526 284.435 112.929 286.121 110.959 286.121C108.989 286.121 107.392 284.435 107.392 282.354C107.392 280.274 108.989 278.587 110.959 278.587C112.929 278.586 114.526 280.272 114.526 282.354ZM130.99 282.354C130.99 284.435 129.394 286.121 127.424 286.121C125.454 286.121 123.857 284.435 123.857 282.354C123.857 280.274 125.454 278.587 127.424 278.587C129.394 278.586 130.99 280.272 130.99 282.354ZM147.455 282.354C147.455 284.435 145.858 286.121 143.888 286.121C141.918 286.121 140.321 284.435 140.321 282.354C140.321 280.274 141.918 278.587 143.888 278.587C145.857 278.586 147.455 280.272 147.455 282.354ZM107.413 295.265C107.413 297.346 105.816 299.032 103.846 299.032C101.876 299.032 100.279 297.346 100.279 295.265C100.279 293.185 101.876 291.499 103.846 291.499C105.816 291.499 107.413 293.185 107.413 295.265ZM123.878 295.265C123.878 297.346 122.281 299.032 120.311 299.032C118.341 299.032 116.744 297.346 116.744 295.265C116.744 293.185 118.341 291.499 120.311 291.499C122.279 291.499 123.878 293.185 123.878 295.265ZM140.341 295.265C140.341 297.346 138.744 299.032 136.774 299.032C134.804 299.032 133.207 297.346 133.207 295.265C133.207 293.185 134.804 291.499 136.774 291.499C138.744 291.499 140.341 293.185 140.341 295.265ZM107.413 266.708C107.413 268.789 105.816 270.475 103.846 270.475C101.876 270.475 100.279 268.789 100.279 266.708C100.279 264.628 101.876 262.941 103.846 262.941C105.816 262.941 107.413 264.628 107.413 266.708ZM123.878 266.708C123.878 268.789 122.281 270.475 120.311 270.475C118.341 270.475 116.744 268.789 116.744 266.708C116.744 264.628 118.341 262.941 120.311 262.941C122.279 262.941 123.878 264.628 123.878 266.708ZM140.341 266.708C140.341 268.789 138.744 270.475 136.774 270.475C134.804 270.475 133.207 268.789 133.207 266.708C133.207 264.628 134.804 262.941 136.774 262.941C138.744 262.941 140.341 264.628 140.341 266.708Z" fill="#E0A6AE"/>
</g>
</g>
<g id="Group_8">
<path id="Vector_7" d="M315.233 33.7421C314.498 33.7421 313.762 33.6126 313.049 33.3508C311.372 32.7363 310.023 31.4687 309.25 29.7823C308.476 28.0959 308.37 26.1932 308.952 24.4227C309.534 22.6522 310.734 21.2276 312.331 20.4106C313.928 19.5936 315.731 19.4819 317.406 20.0964C319.083 20.7109 320.432 21.9785 321.205 23.6635C321.979 25.35 322.085 27.2527 321.503 29.0231C320.921 30.7936 319.721 32.2182 318.124 33.0353C317.208 33.5065 316.223 33.7421 315.233 33.7421ZM315.224 20.5856C314.357 20.5856 313.498 20.7922 312.695 21.2028C311.299 21.9179 310.249 23.1634 309.74 24.7107C309.231 26.2593 309.324 27.9237 310 29.3979C310.677 30.8721 311.856 31.9812 313.321 32.5186C314.788 33.0559 316.364 32.9581 317.76 32.2444C319.157 31.5307 320.206 30.2838 320.715 28.7366C321.224 27.1879 321.132 25.5236 320.455 24.0493C319.779 22.5751 318.599 21.4673 317.134 20.9286C316.51 20.6999 315.866 20.5856 315.224 20.5856Z" fill="#CDC4B9"/>
</g>
<g id="Group_9">
<path id="Vector_8" d="M334.338 87.2911C338.118 100.118 340.008 106.532 344.017 109.045C349.671 112.589 357.985 111.08 363.223 106.777C372.141 99.4529 371.767 84.3496 367.091 76.2826C366.645 75.5124 362.805 71.696 355.125 64.063C352.373 61.3281 350.844 59.8525 348.29 58.6153C346.596 57.7941 340.535 54.8567 336.221 57.5612C331.079 60.7853 331.511 70.0826 331.73 74.7919C331.804 76.4163 332.051 79.5301 334.338 87.2911Z" fill="#34A853"/>
</g>
<g id="Group_10">
<path id="Vector_9" d="M375.708 100.157C372.437 100.157 369.289 98.2253 367.771 94.9145C366.745 92.6797 366.604 90.1556 367.377 87.8093C368.148 85.4629 369.738 83.5739 371.854 82.491C376.224 80.2549 381.501 82.1906 383.618 86.8049C385.736 91.4191 383.903 96.9922 379.535 99.227C378.299 99.8594 376.993 100.157 375.708 100.157ZM375.681 82.4414C374.516 82.4414 373.334 82.7114 372.217 83.2832C368.261 85.3072 366.603 90.3526 368.52 94.5301C370.436 98.7076 375.214 100.459 379.169 98.4347C383.125 96.4108 384.783 91.3653 382.868 87.1879C381.492 84.1912 378.642 82.4414 375.681 82.4414Z" fill="#CDC4B9"/>
</g>
</g>
</g>
</svg>
