<svg width="62" height="52" viewBox="0 0 62 52" fill="none" xmlns="http://www.w3.org/2000/svg">
<path d="M11.2977 52C13.2213 52 15.1449 51.6441 16.8937 50.8433L56.4147 33.4479L28.9015 25.7513L5.70185 35.9838C0.339111 38.3418 -1.52619 43.5915 1.56321 47.729C3.60338 50.4429 7.39227 52 11.2977 52Z" fill="#FBBC04"/>
<path d="M50.7605 34.5602C54.666 34.5602 58.4549 33.003 60.4951 30.2892C63.5845 26.1961 61.7775 20.9464 56.3564 18.544L16.8937 1.14862C11.5309 -1.20932 4.65263 0.169853 1.50494 4.30737C-1.58446 8.40039 0.22254 13.6501 5.64357 16.0526L45.1646 33.4479C46.9133 34.2042 48.8369 34.5602 50.7605 34.5602Z" fill="#0F9D58"/>
</svg>
